<?xml version="1.0" encoding="UTF-8" standalone="no"?>
<!-- Created with Inkscape (http://www.inkscape.org/) -->

<svg
   xmlns:dc="http://purl.org/dc/elements/1.1/"
   xmlns:cc="http://creativecommons.org/ns#"
   xmlns:rdf="http://www.w3.org/1999/02/22-rdf-syntax-ns#"
   xmlns:svg="http://www.w3.org/2000/svg"
   xmlns="http://www.w3.org/2000/svg"
   xmlns:xlink="http://www.w3.org/1999/xlink"
   xmlns:sodipodi="http://sodipodi.sourceforge.net/DTD/sodipodi-0.dtd"
   xmlns:inkscape="http://www.inkscape.org/namespaces/inkscape"
   width="48"
   height="48"
   id="svg4230"
   version="1.1"
   inkscape:version="0.48.4 r9939"
   sodipodi:docname="android-studio.svg">
  <defs
     id="defs4232">
    <linearGradient
       inkscape:collect="always"
       xlink:href="#outerBackgroundGradient"
       id="linearGradient3876"
       gradientUnits="userSpaceOnUse"
       gradientTransform="translate(0,-4)"
       x1="272"
       y1="288"
       x2="272"
       y2="32" />
    <linearGradient
       id="outerBackgroundGradient">
      <stop
         style="stop-color:#202020;stop-opacity:1;"
         offset="0"
         id="stop3864-8-6" />
      <stop
         style="stop-color:#363636;stop-opacity:1;"
         offset="1"
         id="stop3866-9-1" />
    </linearGradient>
    <linearGradient
       y2="32"
       x2="272"
       y1="288"
       x1="272"
       gradientTransform="matrix(0.17818314,0,0,0.17818314,-1.6715484,1000.0224)"
       gradientUnits="userSpaceOnUse"
       id="linearGradient5087"
       xlink:href="#outerBackgroundGradient"
       inkscape:collect="always" />
  </defs>
  <sodipodi:namedview
     id="base"
     pagecolor="#ffffff"
     bordercolor="#666666"
     borderopacity="1.0"
     inkscape:pageopacity="0.0"
     inkscape:pageshadow="2"
     inkscape:zoom="6.3993466"
     inkscape:cx="23.909205"
     inkscape:cy="43.136262"
     inkscape:document-units="px"
     inkscape:current-layer="layer1"
     showgrid="false"
     inkscape:showpageshadow="false"
     borderlayer="true"
     inkscape:window-width="1920"
     inkscape:window-height="1021"
     inkscape:window-x="1062"
     inkscape:window-y="1066"
     inkscape:window-maximized="1" />
  <metadata
     id="metadata4235">
    <rdf:RDF>
      <cc:Work
         rdf:about="">
        <dc:format>image/svg+xml</dc:format>
        <dc:type
           rdf:resource="http://purl.org/dc/dcmitype/StillImage" />
        <dc:title></dc:title>
      </cc:Work>
    </rdf:RDF>
  </metadata>
  <g
     inkscape:label="Capa 1"
     inkscape:groupmode="layer"
     id="layer1"
     transform="translate(0,-1004.3622)">
    <g
       transform="matrix(0.36107049,0,0,-0.36107049,24.938366,1037.2761)"
       id="g312"
       style="fill:#000000;fill-opacity:0.49803922" />
    <g
       transform="matrix(0.36107049,0,0,-0.36107049,36.293746,1025.92)"
       id="g316"
       style="fill:#000000;fill-opacity:0.49803922" />
    <rect
       style="color:#bebebe;fill:url(#linearGradient5087);fill-opacity:1;fill-rule:nonzero;stroke:none;stroke-width:0;marker:none;visibility:visible;display:inline;overflow:visible;enable-background:accumulate"
       id="rect4040"
       width="39.200291"
       height="39.200291"
       x="4.3866758"
       y="1008.9316"
       ry="8.9091558" />
    <path
       inkscape:connector-curvature="0"
       style="opacity:0.05;fill:none;stroke:#000000;stroke-width:0.17818314;stroke-opacity:1;display:inline;enable-background:new"
       d="m 18.892859,1013.7376 c 0.03824,0 -0.07064,0.019 -0.10752,0.04 -0.131154,0.073 -0.180223,0.2319 -0.10752,0.363 l 1.290292,2.3252 c -2.485066,1.2931 -4.163203,3.7524 -4.166567,6.5724 l 16.357138,0 c -0.0034,-2.82 -1.681502,-5.2793 -4.16657,-6.5724 l 1.290294,-2.3252 c 0.07269,-0.1311 0.03707,-0.2901 -0.09408,-0.363 -0.04919,-0.028 -0.111677,-0.044 -0.161288,-0.04 -0.08268,0.012 -0.156171,0.067 -0.201607,0.1478 l -1.303733,2.352 c -1.070406,-0.4747 -2.267893,-0.7392 -3.53486,-0.7392 -1.266971,0 -2.477901,0.2645 -3.548303,0.7392 l -1.303732,-2.352 c -0.04544,-0.082 -0.118918,-0.1414 -0.201609,-0.1478 -0.01239,0 -0.02764,0 -0.04032,0 z m 1.43814,4.9998 c 0.356302,0 0.645143,0.2889 0.645143,0.6452 0,0.3564 -0.288841,0.6452 -0.645143,0.6452 -0.356308,0 -0.645147,-0.2888 -0.645147,-0.6452 0,-0.3563 0.288839,-0.6452 0.645147,-0.6452 z m 7.311652,0 c 0.356305,0 0.645143,0.2889 0.645143,0.6452 0,0.3564 -0.288838,0.6452 -0.645143,0.6452 -0.356307,0 -0.645147,-0.2888 -0.645147,-0.6452 0,-0.3563 0.28884,-0.6452 0.645147,-0.6452 z m -14.40826,4.7312 c -0.953094,0 -1.720388,0.7673 -1.720388,1.7203 l 0,8.1718 c 0,0.9532 0.767294,1.7205 1.720388,1.7205 0.953097,0 1.720389,-0.7673 1.720389,-1.7205 l 0,-8.1718 c 0,-0.953 -0.767292,-1.7203 -1.720389,-1.7203 z m 21.504865,0 c -0.953097,0 -1.72039,0.7673 -1.72039,1.7203 l 0,8.1718 c 0,0.9532 0.767293,1.7205 1.72039,1.7205 0.953093,0 1.720387,-0.7673 1.720387,-1.7205 l 0,-8.1718 c 0,-0.953 -0.767294,-1.7203 -1.720387,-1.7203 z m -18.92428,0.43 0,12.0428 c 0,0 0,1.7203 1.720389,1.7203 l 1.29029,0 0,4.301 c 0,1.0211 0.699305,1.7205 1.720392,1.7205 1.021083,0 1.720387,-0.6994 1.720387,-1.7205 l 0,-4.301 3.440777,0 0,4.301 c 0,1.0211 0.699307,1.7205 1.72039,1.7205 1.021083,0 1.72039,-0.6994 1.72039,-1.7205 l 0,-4.301 1.290291,0 c 1.720391,0 1.720391,-1.7203 1.720391,-1.7203 l 0.01343,-12.0428 -16.357136,0 z m 1.276851,1.2903 0.860195,0 12.042722,0 0.860195,0 0,0.8602 0,2.5806 0,6.8815 c 0,0.4766 -0.383647,0.8603 -0.860195,0.8603 l -12.042722,0 c -0.476549,0 -0.860195,-0.3837 -0.860195,-0.8603 l 0,-6.8815 0,-2.5806 0,-0.8602 z m 6.881555,0.8602 c 0,0 -0.256527,0 -0.443538,0.081 0,0 -0.06168,0.1753 -0.10752,0.6721 -0.05617,0.6077 -0.281007,0.7925 -0.564505,0.9946 -0.06704,0.026 -0.135948,0.051 -0.201606,0.081 -0.343425,0.059 -0.632649,0.095 -1.102124,-0.2956 -0.383739,-0.319 -0.551065,-0.4032 -0.551065,-0.4032 -0.189426,0.074 -0.376334,0.2553 -0.376334,0.2553 0,0 -0.180679,0.1865 -0.255369,0.3763 0,0 0.0844,0.1675 0.403216,0.5511 0.390021,0.4695 0.35323,0.7588 0.295691,1.1022 -0.02973,0.066 -0.05545,0.1346 -0.08064,0.2015 -0.201935,0.2837 -0.386883,0.5084 -0.994601,0.5645 -0.496787,0.045 -0.672027,0.1074 -0.672027,0.1074 -0.08128,0.1873 -0.08064,0.4436 -0.08064,0.4436 0,0 -7.21e-4,0.2565 0.08064,0.4435 0,0 0.17514,0.062 0.672027,0.1074 0.607702,0.056 0.792368,0.2812 0.994601,0.5645 0.02517,0.066 0.0509,0.1361 0.08064,0.2017 0.0578,0.3434 0.09429,0.6327 -0.295691,1.102 -0.318826,0.3839 -0.403216,0.5511 -0.403216,0.5511 0.07497,0.1899 0.255369,0.3765 0.255369,0.3765 0,0 0.186565,0.1806 0.376334,0.2553 0,0 0.167349,-0.084 0.551065,-0.4032 0.469494,-0.3901 0.758771,-0.353 1.102124,-0.2957 0.0657,0.029 0.134521,0.056 0.201606,0.081 0.283697,0.2019 0.508256,0.3868 0.564505,0.9946 0.04589,0.4968 0.10752,0.672 0.10752,0.672 0.187233,0.082 0.443538,0.081 0.443538,0.081 0,0 0.256628,0 0.443538,-0.081 0,0 0.06176,-0.175 0.107519,-0.672 0.05625,-0.6078 0.281268,-0.7924 0.564504,-0.9946 0.06706,-0.026 0.135997,-0.051 0.201608,-0.081 0.343388,-0.059 0.632643,-0.095 1.102125,0.2957 0.383732,0.3188 0.55106,0.4032 0.55106,0.4032 0.189855,-0.074 0.376337,-0.2553 0.376337,-0.2553 0,0 0.180723,-0.1868 0.25537,-0.3765 0,0 -0.0841,-0.1672 -0.403216,-0.5511 -0.390022,-0.4693 -0.353092,-0.7588 -0.295693,-1.102 0.02981,-0.067 0.0556,-0.1345 0.08064,-0.2017 0.201976,-0.2837 0.386878,-0.5081 0.994601,-0.5645 0.49686,-0.045 0.672027,-0.1074 0.672027,-0.1074 0.08111,-0.1871 0.08064,-0.4435 0.08064,-0.4435 0,0 8.16e-4,-0.2564 -0.08064,-0.4436 0,0 -0.175109,-0.062 -0.672027,-0.1074 -0.607757,-0.056 -0.792416,-0.2809 -0.994601,-0.5645 -0.02509,-0.066 -0.05068,-0.136 -0.08064,-0.2015 -0.05766,-0.3433 -0.0943,-0.6327 0.295693,-1.1022 0.318841,-0.3837 0.403216,-0.5511 0.403216,-0.5511 -0.07491,-0.1897 -0.25537,-0.3763 -0.25537,-0.3763 0,0 -0.186546,-0.1807 -0.376337,-0.2553 0,0 -0.16718,0.07 -0.55106,0.3899 -0.469459,0.3899 -0.758675,0.3665 -1.102125,0.3089 -0.06543,-0.029 -0.1345,-0.056 -0.201608,-0.081 -0.283618,-0.2019 -0.508317,-0.3867 -0.564504,-0.9946 -0.04596,-0.4968 -0.107519,-0.6721 -0.107519,-0.6721 -0.187151,-0.082 -0.443538,-0.081 -0.443538,-0.081 z m 0,2.5134 c 0.566279,0 1.127032,0.2265 1.559104,0.6586 0.864141,0.8642 0.864126,2.2541 0,3.1182 -0.864146,0.8641 -2.254069,0.8641 -3.118206,0 -0.864146,-0.8641 -0.864142,-2.254 0,-3.1182 0.432063,-0.4321 0.992823,-0.6586 1.559102,-0.6586 z"
       id="path3916" />
    <path
       id="path3854"
       d="m 18.892859,1013.7376 c 0.03824,0 -0.07064,0.019 -0.10752,0.04 -0.131154,0.073 -0.180223,0.2319 -0.10752,0.363 l 1.290292,2.3252 c -2.485066,1.2931 -4.163203,3.7524 -4.166567,6.5724 l 16.357138,0 c -0.0034,-2.82 -1.681502,-5.2793 -4.16657,-6.5724 l 1.290294,-2.3252 c 0.07269,-0.1311 0.03707,-0.2901 -0.09408,-0.363 -0.04919,-0.028 -0.111677,-0.044 -0.161288,-0.04 -0.08268,0.012 -0.156171,0.067 -0.201607,0.1478 l -1.303733,2.352 c -1.070406,-0.4747 -2.267893,-0.7392 -3.53486,-0.7392 -1.266971,0 -2.477901,0.2645 -3.548303,0.7392 l -1.303732,-2.352 c -0.04544,-0.082 -0.118918,-0.1414 -0.201609,-0.1478 -0.01239,0 -0.02764,0 -0.04032,0 z m 1.43814,4.9998 c 0.356302,0 0.645143,0.2889 0.645143,0.6452 0,0.3564 -0.288841,0.6452 -0.645143,0.6452 -0.356308,0 -0.645147,-0.2888 -0.645147,-0.6452 0,-0.3563 0.288839,-0.6452 0.645147,-0.6452 z m 7.311652,0 c 0.356305,0 0.645143,0.2889 0.645143,0.6452 0,0.3564 -0.288838,0.6452 -0.645143,0.6452 -0.356307,0 -0.645147,-0.2888 -0.645147,-0.6452 0,-0.3563 0.28884,-0.6452 0.645147,-0.6452 z m -14.40826,4.7312 c -0.953094,0 -1.720388,0.7673 -1.720388,1.7203 l 0,8.1718 c 0,0.9532 0.767294,1.7205 1.720388,1.7205 0.953097,0 1.720389,-0.7673 1.720389,-1.7205 l 0,-8.1718 c 0,-0.953 -0.767292,-1.7203 -1.720389,-1.7203 z m 21.504865,0 c -0.953097,0 -1.72039,0.7673 -1.72039,1.7203 l 0,8.1718 c 0,0.9532 0.767293,1.7205 1.72039,1.7205 0.953093,0 1.720387,-0.7673 1.720387,-1.7205 l 0,-8.1718 c 0,-0.953 -0.767294,-1.7203 -1.720387,-1.7203 z m -18.92428,0.43 0,12.0428 c 0,0 0,1.7203 1.720389,1.7203 l 1.29029,0 0,4.301 c 0,1.0211 0.699305,1.7205 1.720392,1.7205 1.021083,0 1.720387,-0.6994 1.720387,-1.7205 l 0,-4.301 3.440777,0 0,4.301 c 0,1.0211 0.699307,1.7205 1.72039,1.7205 1.021083,0 1.72039,-0.6994 1.72039,-1.7205 l 0,-4.301 1.290291,0 c 1.720391,0 1.720391,-1.7203 1.720391,-1.7203 l 0.01343,-12.0428 -16.357136,0 z m 1.276851,1.2903 0.860195,0 12.042722,0 0.860195,0 0,0.8602 0,2.5806 0,6.8815 c 0,0.4766 -0.383647,0.8603 -0.860195,0.8603 l -12.042722,0 c -0.476549,0 -0.860195,-0.3837 -0.860195,-0.8603 l 0,-6.8815 0,-2.5806 0,-0.8602 z m 6.881555,0.8602 c 0,0 -0.256527,0 -0.443538,0.081 0,0 -0.06168,0.1753 -0.10752,0.6721 -0.05617,0.6077 -0.281007,0.7925 -0.564505,0.9946 -0.06704,0.026 -0.135948,0.051 -0.201606,0.081 -0.343425,0.059 -0.632649,0.095 -1.102124,-0.2956 -0.383739,-0.319 -0.551065,-0.4032 -0.551065,-0.4032 -0.189426,0.074 -0.376334,0.2553 -0.376334,0.2553 0,0 -0.180679,0.1865 -0.255369,0.3763 0,0 0.0844,0.1675 0.403216,0.5511 0.390021,0.4695 0.35323,0.7588 0.295691,1.1022 -0.02973,0.066 -0.05545,0.1346 -0.08064,0.2015 -0.201935,0.2837 -0.386883,0.5084 -0.994601,0.5645 -0.496787,0.045 -0.672027,0.1074 -0.672027,0.1074 -0.08128,0.1873 -0.08064,0.4436 -0.08064,0.4436 0,0 -7.21e-4,0.2565 0.08064,0.4435 0,0 0.17514,0.062 0.672027,0.1074 0.607702,0.056 0.792368,0.2812 0.994601,0.5645 0.02517,0.066 0.0509,0.1361 0.08064,0.2017 0.0578,0.3434 0.09429,0.6327 -0.295691,1.102 -0.318826,0.3839 -0.403216,0.5511 -0.403216,0.5511 0.07497,0.1899 0.255369,0.3765 0.255369,0.3765 0,0 0.186565,0.1806 0.376334,0.2553 0,0 0.167349,-0.084 0.551065,-0.4032 0.469494,-0.3901 0.758771,-0.353 1.102124,-0.2957 0.0657,0.029 0.134521,0.056 0.201606,0.081 0.283697,0.2019 0.508256,0.3868 0.564505,0.9946 0.04589,0.4968 0.10752,0.672 0.10752,0.672 0.187233,0.082 0.443538,0.081 0.443538,0.081 0,0 0.256628,0 0.443538,-0.081 0,0 0.06176,-0.175 0.107519,-0.672 0.05625,-0.6078 0.281268,-0.7924 0.564504,-0.9946 0.06706,-0.026 0.135997,-0.051 0.201608,-0.081 0.343388,-0.059 0.632643,-0.095 1.102125,0.2957 0.383732,0.3188 0.55106,0.4032 0.55106,0.4032 0.189855,-0.074 0.376337,-0.2553 0.376337,-0.2553 0,0 0.180723,-0.1868 0.25537,-0.3765 0,0 -0.0841,-0.1672 -0.403216,-0.5511 -0.390022,-0.4693 -0.353092,-0.7588 -0.295693,-1.102 0.02981,-0.067 0.0556,-0.1345 0.08064,-0.2017 0.201976,-0.2837 0.386878,-0.5081 0.994601,-0.5645 0.49686,-0.045 0.672027,-0.1074 0.672027,-0.1074 0.08111,-0.1871 0.08064,-0.4435 0.08064,-0.4435 0,0 8.16e-4,-0.2564 -0.08064,-0.4436 0,0 -0.175109,-0.062 -0.672027,-0.1074 -0.607757,-0.056 -0.792416,-0.2809 -0.994601,-0.5645 -0.02509,-0.066 -0.05068,-0.136 -0.08064,-0.2015 -0.05766,-0.3433 -0.0943,-0.6327 0.295693,-1.1022 0.318841,-0.3837 0.403216,-0.5511 0.403216,-0.5511 -0.07491,-0.1897 -0.25537,-0.3763 -0.25537,-0.3763 0,0 -0.186546,-0.1807 -0.376337,-0.2553 0,0 -0.16718,0.07 -0.55106,0.3899 -0.469459,0.3899 -0.758675,0.3665 -1.102125,0.3089 -0.06543,-0.029 -0.1345,-0.056 -0.201608,-0.081 -0.283618,-0.2019 -0.508317,-0.3867 -0.564504,-0.9946 -0.04596,-0.4968 -0.107519,-0.6721 -0.107519,-0.6721 -0.187151,-0.082 -0.443538,-0.081 -0.443538,-0.081 z m 0,2.5134 c 0.566279,0 1.127032,0.2265 1.559104,0.6586 0.864141,0.8642 0.864126,2.2541 0,3.1182 -0.864146,0.8641 -2.254069,0.8641 -3.118206,0 -0.864146,-0.8641 -0.864142,-2.254 0,-3.1182 0.432063,-0.4321 0.992823,-0.6586 1.559102,-0.6586 z"
       style="fill:#a4c639;stroke:none;display:inline;enable-background:new"
       inkscape:connector-curvature="0" />
  </g>
</svg>
