<?xml version="1.0" encoding="UTF-8" standalone="no"?>
<!-- Created with Inkscape (http://www.inkscape.org/) -->

<svg
   xmlns:dc="http://purl.org/dc/elements/1.1/"
   xmlns:cc="http://creativecommons.org/ns#"
   xmlns:rdf="http://www.w3.org/1999/02/22-rdf-syntax-ns#"
   xmlns:svg="http://www.w3.org/2000/svg"
   xmlns="http://www.w3.org/2000/svg"
   xmlns:xlink="http://www.w3.org/1999/xlink"
   xmlns:sodipodi="http://sodipodi.sourceforge.net/DTD/sodipodi-0.dtd"
   xmlns:inkscape="http://www.inkscape.org/namespaces/inkscape"
   width="48"
   height="48"
   id="svg4230"
   version="1.1"
   inkscape:version="0.48.4 r9939"
   sodipodi:docname="android-studio.svg">
  <defs
     id="defs4232">
    <linearGradient
       inkscape:collect="always"
       xlink:href="#outerBackgroundGradient"
       id="linearGradient3876"
       gradientUnits="userSpaceOnUse"
       gradientTransform="translate(0,-4)"
       x1="272"
       y1="288"
       x2="272"
       y2="32" />
    <linearGradient
       id="outerBackgroundGradient">
      <stop
         style="stop-color:#202020;stop-opacity:1;"
         offset="0"
         id="stop3864-8-6" />
      <stop
         style="stop-color:#363636;stop-opacity:1;"
         offset="1"
         id="stop3866-9-1" />
    </linearGradient>
    <linearGradient
       y2="32"
       x2="272"
       y1="288"
       x1="272"
       gradientTransform="matrix(0.20091273,0,0,0.20091273,-4.6320775,996.22935)"
       gradientUnits="userSpaceOnUse"
       id="linearGradient5087"
       xlink:href="#outerBackgroundGradient"
       inkscape:collect="always" />
  </defs>
  <sodipodi:namedview
     id="base"
     pagecolor="#ffffff"
     bordercolor="#666666"
     borderopacity="1.0"
     inkscape:pageopacity="0.0"
     inkscape:pageshadow="2"
     inkscape:zoom="6.3993466"
     inkscape:cx="23.909205"
     inkscape:cy="43.136262"
     inkscape:document-units="px"
     inkscape:current-layer="layer1"
     showgrid="false"
     inkscape:showpageshadow="false"
     borderlayer="true"
     inkscape:window-width="1920"
     inkscape:window-height="1021"
     inkscape:window-x="1062"
     inkscape:window-y="1066"
     inkscape:window-maximized="1" />
  <metadata
     id="metadata4235">
    <rdf:RDF>
      <cc:Work
         rdf:about="">
        <dc:format>image/svg+xml</dc:format>
        <dc:type
           rdf:resource="http://purl.org/dc/dcmitype/StillImage" />
        <dc:title></dc:title>
      </cc:Work>
    </rdf:RDF>
  </metadata>
  <g
     inkscape:label="Capa 1"
     inkscape:groupmode="layer"
     id="layer1"
     transform="translate(0,-1004.3622)">
    <g
       transform="matrix(0.36107049,0,0,-0.36107049,24.938366,1037.2761)"
       id="g312"
       style="fill:#000000;fill-opacity:0.49803922" />
    <g
       transform="matrix(0.36107049,0,0,-0.36107049,36.293746,1025.92)"
       id="g316"
       style="fill:#000000;fill-opacity:0.49803922" />
    <rect
       style="color:#bebebe;fill:url(#linearGradient5087);fill-opacity:1;fill-rule:nonzero;stroke:none;stroke-width:0;marker:none;visibility:visible;display:inline;overflow:visible;enable-background:accumulate"
       id="rect4040"
       width="44.200802"
       height="44.200802"
       x="2.1989524"
       y="1006.275"
       ry="10.045635" />
    <path
       inkscape:connector-curvature="0"
       style="opacity:0.05;fill:none;stroke:#000000;stroke-width:0.20091273;stroke-opacity:1;display:inline;enable-background:new"
       d="m 18.55559,1011.6941 c 0.04312,0 -0.07965,0.022 -0.121236,0.045 -0.147884,0.082 -0.203213,0.2614 -0.121235,0.4093 l 1.454885,2.6218 c -2.802069,1.458 -4.694274,4.231 -4.698067,7.4108 l 18.443705,0 c -0.0038,-3.1798 -1.895999,-5.9528 -4.69807,-7.4108 l 1.454887,-2.6218 c 0.08196,-0.1479 0.0418,-0.3272 -0.106083,-0.4093 -0.05546,-0.032 -0.125923,-0.05 -0.181862,-0.045 -0.09323,0.013 -0.176093,0.075 -0.227325,0.1666 l -1.470041,2.6521 c -1.20695,-0.5353 -2.557193,-0.8335 -3.985778,-0.8335 -1.42859,0 -2.79399,0.2982 -4.000935,0.8335 l -1.47004,-2.6521 c -0.05124,-0.092 -0.134088,-0.1594 -0.227327,-0.1666 -0.01397,0 -0.03116,0 -0.04546,0 z m 1.621593,5.6376 c 0.401753,0 0.72744,0.3257 0.72744,0.7275 0,0.4018 -0.325687,0.7275 -0.72744,0.7275 -0.40176,0 -0.727444,-0.3257 -0.727444,-0.7275 0,-0.4018 0.325684,-0.7275 0.727444,-0.7275 z m 8.244349,0 c 0.401757,0 0.72744,0.3257 0.72744,0.7275 0,0.4018 -0.325683,0.7275 -0.72744,0.7275 -0.401758,0 -0.727444,-0.3257 -0.727444,-0.7275 0,-0.4018 0.325686,-0.7275 0.727444,-0.7275 z m -16.246222,5.3347 c -1.074674,0 -1.939846,0.8652 -1.939846,1.9397 l 0,9.2142 c 0,1.0748 0.865172,1.94 1.939846,1.94 1.074677,0 1.939847,-0.8652 1.939847,-1.94 l 0,-9.2142 c 0,-1.0745 -0.86517,-1.9397 -1.939847,-1.9397 z m 24.248092,0 c -1.074677,0 -1.939848,0.8652 -1.939848,1.9397 l 0,9.2142 c 0,1.0748 0.865171,1.94 1.939848,1.94 1.074673,0 1.939845,-0.8652 1.939845,-1.94 l 0,-9.2142 c 0,-1.0745 -0.865172,-1.9397 -1.939845,-1.9397 z m -21.33832,0.4848 0,13.579 c 0,0 0,1.9398 1.939847,1.9398 l 1.454884,0 0,4.8497 c 0,1.1513 0.788511,1.9399 1.939851,1.9399 1.151335,0 1.939844,-0.7886 1.939844,-1.9399 l 0,-4.8497 3.879693,0 0,4.8497 c 0,1.1513 0.788513,1.9399 1.939849,1.9399 1.151335,0 1.939848,-0.7886 1.939848,-1.9399 l 0,-4.8497 1.454885,0 c 1.939849,0 1.939849,-1.9398 1.939849,-1.9398 l 0.01514,-13.579 -18.443703,0 z m 1.43973,1.4549 0.969925,0 13.578928,0 0.969925,0 0,0.97 0,2.9098 0,7.7593 c 0,0.5374 -0.432586,0.97 -0.969925,0.97 l -13.578928,0 c -0.537339,0 -0.969925,-0.4326 -0.969925,-0.97 l 0,-7.7593 0,-2.9098 0,-0.97 z m 7.759388,0.97 c 0,0 -0.28925,0 -0.500117,0.091 0,0 -0.06955,0.1976 -0.121236,0.7578 -0.06334,0.6852 -0.316853,0.8936 -0.636515,1.1215 -0.07559,0.029 -0.15329,0.057 -0.227323,0.091 -0.387234,0.066 -0.713352,0.1067 -1.242715,-0.3333 -0.432689,-0.3597 -0.62136,-0.4547 -0.62136,-0.4547 -0.21359,0.084 -0.42434,0.2879 -0.42434,0.2879 0,0 -0.203728,0.2103 -0.287945,0.4243 0,0 0.09516,0.1888 0.454651,0.6214 0.439774,0.5294 0.39829,0.8556 0.333411,1.2428 -0.03352,0.074 -0.06252,0.1518 -0.09093,0.2272 -0.227695,0.3199 -0.436235,0.5732 -1.121476,0.6365 -0.560159,0.051 -0.757753,0.1211 -0.757753,0.1211 -0.09165,0.2112 -0.09093,0.5002 -0.09093,0.5002 0,0 -8.13e-4,0.2892 0.09093,0.5001 0,0 0.197482,0.07 0.757753,0.1211 0.685222,0.063 0.893445,0.317 1.121476,0.6365 0.02838,0.075 0.05739,0.1534 0.09093,0.2274 0.06517,0.3872 0.10632,0.7134 -0.333411,1.2426 -0.359496,0.4328 -0.454651,0.6214 -0.454651,0.6214 0.08453,0.2141 0.287945,0.4245 0.287945,0.4245 0,0 0.210363,0.2036 0.42434,0.2879 0,0 0.188696,-0.095 0.62136,-0.4547 0.529385,-0.4398 0.855563,-0.398 1.242715,-0.3334 0.07408,0.033 0.151681,0.063 0.227323,0.091 0.319887,0.2277 0.573091,0.4362 0.636515,1.1215 0.05175,0.5601 0.121236,0.7577 0.121236,0.7577 0.211117,0.092 0.500117,0.091 0.500117,0.091 0,0 0.289364,0 0.500117,-0.091 0,0 0.06964,-0.1973 0.121235,-0.7577 0.06342,-0.6853 0.317147,-0.8935 0.636513,-1.1215 0.07561,-0.029 0.153346,-0.058 0.227326,-0.091 0.387192,-0.066 0.713345,-0.1066 1.242715,0.3334 0.432683,0.3595 0.621356,0.4547 0.621356,0.4547 0.214073,-0.084 0.424343,-0.2879 0.424343,-0.2879 0,0 0.203777,-0.2106 0.287946,-0.4245 0,0 -0.09483,-0.1886 -0.454651,-0.6214 -0.439775,-0.5292 -0.398134,-0.8556 -0.333413,-1.2426 0.03361,-0.075 0.06269,-0.1517 0.09093,-0.2274 0.227741,-0.3199 0.436229,-0.573 1.121475,-0.6365 0.560242,-0.051 0.757753,-0.1211 0.757753,-0.1211 0.09146,-0.211 0.09093,-0.5001 0.09093,-0.5001 0,0 9.21e-4,-0.2891 -0.09093,-0.5002 0,0 -0.197446,-0.07 -0.757753,-0.1211 -0.685284,-0.063 -0.893499,-0.3167 -1.121475,-0.6365 -0.02829,-0.075 -0.05714,-0.1534 -0.09093,-0.2272 -0.06501,-0.3871 -0.106333,-0.7134 0.333413,-1.2428 0.359513,-0.4327 0.454651,-0.6214 0.454651,-0.6214 -0.08447,-0.2139 -0.287946,-0.4243 -0.287946,-0.4243 0,0 -0.210342,-0.2038 -0.424343,-0.2879 0,0 -0.188507,0.079 -0.621356,0.4396 -0.529344,0.4397 -0.855453,0.4133 -1.242715,0.3484 -0.07378,-0.033 -0.151657,-0.063 -0.227326,-0.091 -0.319797,-0.2277 -0.573159,-0.4361 -0.636513,-1.1215 -0.05182,-0.5602 -0.121235,-0.7578 -0.121235,-0.7578 -0.211024,-0.092 -0.500117,-0.091 -0.500117,-0.091 z m 0,2.834 c 0.638515,0 1.2708,0.2554 1.757988,0.7426 0.974373,0.9744 0.974357,2.5416 0,3.516 -0.974379,0.9743 -2.541605,0.9743 -3.515974,0 -0.974379,-0.9744 -0.974375,-2.5416 0,-3.516 0.487178,-0.4872 1.119471,-0.7426 1.757986,-0.7426 z"
       id="path3916" />
    <path
       id="path3854"
       d="m 18.55559,1011.6941 c 0.04312,0 -0.07965,0.022 -0.121236,0.045 -0.147884,0.082 -0.203213,0.2614 -0.121235,0.4093 l 1.454885,2.6218 c -2.802069,1.458 -4.694274,4.231 -4.698067,7.4108 l 18.443705,0 c -0.0038,-3.1798 -1.895999,-5.9528 -4.69807,-7.4108 l 1.454887,-2.6218 c 0.08196,-0.1479 0.0418,-0.3272 -0.106083,-0.4093 -0.05546,-0.032 -0.125923,-0.05 -0.181862,-0.045 -0.09323,0.013 -0.176093,0.075 -0.227325,0.1666 l -1.470041,2.6521 c -1.20695,-0.5353 -2.557193,-0.8335 -3.985778,-0.8335 -1.42859,0 -2.79399,0.2982 -4.000935,0.8335 l -1.47004,-2.6521 c -0.05124,-0.092 -0.134088,-0.1594 -0.227327,-0.1666 -0.01397,0 -0.03116,0 -0.04546,0 z m 1.621593,5.6376 c 0.401753,0 0.72744,0.3257 0.72744,0.7275 0,0.4018 -0.325687,0.7275 -0.72744,0.7275 -0.40176,0 -0.727444,-0.3257 -0.727444,-0.7275 0,-0.4018 0.325684,-0.7275 0.727444,-0.7275 z m 8.244349,0 c 0.401757,0 0.72744,0.3257 0.72744,0.7275 0,0.4018 -0.325683,0.7275 -0.72744,0.7275 -0.401758,0 -0.727444,-0.3257 -0.727444,-0.7275 0,-0.4018 0.325686,-0.7275 0.727444,-0.7275 z m -16.246222,5.3347 c -1.074674,0 -1.939846,0.8652 -1.939846,1.9397 l 0,9.2142 c 0,1.0748 0.865172,1.94 1.939846,1.94 1.074677,0 1.939847,-0.8652 1.939847,-1.94 l 0,-9.2142 c 0,-1.0745 -0.86517,-1.9397 -1.939847,-1.9397 z m 24.248092,0 c -1.074677,0 -1.939848,0.8652 -1.939848,1.9397 l 0,9.2142 c 0,1.0748 0.865171,1.94 1.939848,1.94 1.074673,0 1.939845,-0.8652 1.939845,-1.94 l 0,-9.2142 c 0,-1.0745 -0.865172,-1.9397 -1.939845,-1.9397 z m -21.33832,0.4848 0,13.579 c 0,0 0,1.9398 1.939847,1.9398 l 1.454884,0 0,4.8497 c 0,1.1513 0.788511,1.9399 1.939851,1.9399 1.151335,0 1.939844,-0.7886 1.939844,-1.9399 l 0,-4.8497 3.879693,0 0,4.8497 c 0,1.1513 0.788513,1.9399 1.939849,1.9399 1.151335,0 1.939848,-0.7886 1.939848,-1.9399 l 0,-4.8497 1.454885,0 c 1.939849,0 1.939849,-1.9398 1.939849,-1.9398 l 0.01514,-13.579 -18.443703,0 z m 1.43973,1.4549 0.969925,0 13.578928,0 0.969925,0 0,0.97 0,2.9098 0,7.7593 c 0,0.5374 -0.432586,0.97 -0.969925,0.97 l -13.578928,0 c -0.537339,0 -0.969925,-0.4326 -0.969925,-0.97 l 0,-7.7593 0,-2.9098 0,-0.97 z m 7.759388,0.97 c 0,0 -0.28925,0 -0.500117,0.091 0,0 -0.06955,0.1976 -0.121236,0.7578 -0.06334,0.6852 -0.316853,0.8936 -0.636515,1.1215 -0.07559,0.029 -0.15329,0.057 -0.227323,0.091 -0.387234,0.066 -0.713352,0.1067 -1.242715,-0.3333 -0.432689,-0.3597 -0.62136,-0.4547 -0.62136,-0.4547 -0.21359,0.084 -0.42434,0.2879 -0.42434,0.2879 0,0 -0.203728,0.2103 -0.287945,0.4243 0,0 0.09516,0.1888 0.454651,0.6214 0.439774,0.5294 0.39829,0.8556 0.333411,1.2428 -0.03352,0.074 -0.06252,0.1518 -0.09093,0.2272 -0.227695,0.3199 -0.436235,0.5732 -1.121476,0.6365 -0.560159,0.051 -0.757753,0.1211 -0.757753,0.1211 -0.09165,0.2112 -0.09093,0.5002 -0.09093,0.5002 0,0 -8.13e-4,0.2892 0.09093,0.5001 0,0 0.197482,0.07 0.757753,0.1211 0.685222,0.063 0.893445,0.317 1.121476,0.6365 0.02838,0.075 0.05739,0.1534 0.09093,0.2274 0.06517,0.3872 0.10632,0.7134 -0.333411,1.2426 -0.359496,0.4328 -0.454651,0.6214 -0.454651,0.6214 0.08453,0.2141 0.287945,0.4245 0.287945,0.4245 0,0 0.210363,0.2036 0.42434,0.2879 0,0 0.188696,-0.095 0.62136,-0.4547 0.529385,-0.4398 0.855563,-0.398 1.242715,-0.3334 0.07408,0.033 0.151681,0.063 0.227323,0.091 0.319887,0.2277 0.573091,0.4362 0.636515,1.1215 0.05175,0.5601 0.121236,0.7577 0.121236,0.7577 0.211117,0.092 0.500117,0.091 0.500117,0.091 0,0 0.289364,0 0.500117,-0.091 0,0 0.06964,-0.1973 0.121235,-0.7577 0.06342,-0.6853 0.317147,-0.8935 0.636513,-1.1215 0.07561,-0.029 0.153346,-0.058 0.227326,-0.091 0.387192,-0.066 0.713345,-0.1066 1.242715,0.3334 0.432683,0.3595 0.621356,0.4547 0.621356,0.4547 0.214073,-0.084 0.424343,-0.2879 0.424343,-0.2879 0,0 0.203777,-0.2106 0.287946,-0.4245 0,0 -0.09483,-0.1886 -0.454651,-0.6214 -0.439775,-0.5292 -0.398134,-0.8556 -0.333413,-1.2426 0.03361,-0.075 0.06269,-0.1517 0.09093,-0.2274 0.227741,-0.3199 0.436229,-0.573 1.121475,-0.6365 0.560242,-0.051 0.757753,-0.1211 0.757753,-0.1211 0.09146,-0.211 0.09093,-0.5001 0.09093,-0.5001 0,0 9.21e-4,-0.2891 -0.09093,-0.5002 0,0 -0.197446,-0.07 -0.757753,-0.1211 -0.685284,-0.063 -0.893499,-0.3167 -1.121475,-0.6365 -0.02829,-0.075 -0.05714,-0.1534 -0.09093,-0.2272 -0.06501,-0.3871 -0.106333,-0.7134 0.333413,-1.2428 0.359513,-0.4327 0.454651,-0.6214 0.454651,-0.6214 -0.08447,-0.2139 -0.287946,-0.4243 -0.287946,-0.4243 0,0 -0.210342,-0.2038 -0.424343,-0.2879 0,0 -0.188507,0.079 -0.621356,0.4396 -0.529344,0.4397 -0.855453,0.4133 -1.242715,0.3484 -0.07378,-0.033 -0.151657,-0.063 -0.227326,-0.091 -0.319797,-0.2277 -0.573159,-0.4361 -0.636513,-1.1215 -0.05182,-0.5602 -0.121235,-0.7578 -0.121235,-0.7578 -0.211024,-0.092 -0.500117,-0.091 -0.500117,-0.091 z m 0,2.834 c 0.638515,0 1.2708,0.2554 1.757988,0.7426 0.974373,0.9744 0.974357,2.5416 0,3.516 -0.974379,0.9743 -2.541605,0.9743 -3.515974,0 -0.974379,-0.9744 -0.974375,-2.5416 0,-3.516 0.487178,-0.4872 1.119471,-0.7426 1.757986,-0.7426 z"
       style="fill:#a4c639;stroke:none;display:inline;enable-background:new"
       inkscape:connector-curvature="0" />
  </g>
</svg>
