<?xml version="1.0" encoding="UTF-8" standalone="no"?>
<!-- Created with Inkscape (http://www.inkscape.org/) -->

<svg
   xmlns:dc="http://purl.org/dc/elements/1.1/"
   xmlns:cc="http://creativecommons.org/ns#"
   xmlns:rdf="http://www.w3.org/1999/02/22-rdf-syntax-ns#"
   xmlns:svg="http://www.w3.org/2000/svg"
   xmlns="http://www.w3.org/2000/svg"
   xmlns:xlink="http://www.w3.org/1999/xlink"
   xmlns:sodipodi="http://sodipodi.sourceforge.net/DTD/sodipodi-0.dtd"
   xmlns:inkscape="http://www.inkscape.org/namespaces/inkscape"
   width="48"
   height="48"
   id="svg4230"
   version="1.1"
   inkscape:version="0.48.4 r9939"
   sodipodi:docname="android-studio.svg">
  <defs
     id="defs4232">
    <linearGradient
       gradientUnits="userSpaceOnUse"
       y2="1007.3625"
       x2="26.056679"
       y1="1049.3649"
       x1="26.056679"
       id="linearGradient4047"
       xlink:href="#linearGradient4678"
       inkscape:collect="always"
       gradientTransform="translate(0,4.7900391e-5)" />
    <linearGradient
       id="linearGradient4678"
       inkscape:collect="always">
      <stop
         id="stop4680"
         offset="0"
         style="stop-color:#0a7fe7;stop-opacity:1" />
      <stop
         id="stop4682"
         offset="1"
         style="stop-color:#50bffc;stop-opacity:1" />
    </linearGradient>
  </defs>
  <sodipodi:namedview
     id="base"
     pagecolor="#ffffff"
     bordercolor="#666666"
     borderopacity="1.0"
     inkscape:pageopacity="0.0"
     inkscape:pageshadow="2"
     inkscape:zoom="6.3993466"
     inkscape:cx="23.909205"
     inkscape:cy="30.634986"
     inkscape:document-units="px"
     inkscape:current-layer="layer1"
     showgrid="false"
     inkscape:showpageshadow="false"
     borderlayer="true"
     inkscape:window-width="1920"
     inkscape:window-height="1021"
     inkscape:window-x="1062"
     inkscape:window-y="1066"
     inkscape:window-maximized="1" />
  <metadata
     id="metadata4235">
    <rdf:RDF>
      <cc:Work
         rdf:about="">
        <dc:format>image/svg+xml</dc:format>
        <dc:type
           rdf:resource="http://purl.org/dc/dcmitype/StillImage" />
        <dc:title></dc:title>
      </cc:Work>
    </rdf:RDF>
  </metadata>
  <g
     inkscape:label="Capa 1"
     inkscape:groupmode="layer"
     id="layer1"
     transform="translate(0,-1004.3622)">
    <g
       transform="matrix(0.36107049,0,0,-0.36107049,24.938366,1037.2761)"
       id="g312"
       style="fill:#000000;fill-opacity:0.49803922" />
    <g
       transform="matrix(0.36107049,0,0,-0.36107049,36.293746,1025.92)"
       id="g316"
       style="fill:#000000;fill-opacity:0.49803922" />
    <path
       inkscape:connector-curvature="0"
       id="rect4159"
       d="m 17.019315,1008.0312 c -0.226078,0.03 -0.449951,0.1013 -0.6603,0.2221 -0.841426,0.4857 -1.12762,1.554 -0.641816,2.3954 l 0.919144,1.5953 c -2.849469,1.8728 -4.731515,5.083 -4.767469,8.7531 l -0.0057,0 0,0.3725 c -0.678954,-0.5921 -1.559807,-0.9614 -2.5355965,-0.9614 -2.142202,0 -3.866791,1.7246 -3.866791,3.8667 l 0,8.8246 c 0,2.1421 1.724589,3.8668 3.866791,3.8668 0.9757895,0 1.8566425,-0.3694 2.5355965,-0.9614 l 0,2.5091 c 0,1.7502 1.408669,3.1617 3.158947,3.1617 l 0.731617,0 c -0.0087,0.099 -0.02913,0.1961 -0.02913,0.2985 l 0,3.8032 c 0,2.1423 1.724574,3.8668 3.86679,3.8668 2.142189,0 3.866792,-1.7245 3.866792,-3.8668 l 0,-3.8032 c 0,-0.1024 -0.02134,-0.1985 -0.02913,-0.2985 l 0.861046,0 c -0.0087,0.099 -0.02913,0.1961 -0.02913,0.2985 l 0,3.8032 c 0,2.1423 1.724576,3.8668 3.866792,3.8668 2.142202,0 3.866791,-1.7245 3.866791,-3.8668 l 0,-3.8032 c 0,-0.1024 -0.02134,-0.1985 -0.02912,-0.2985 l 0.731617,0 c 1.750278,0 3.158947,-1.4115 3.158947,-3.1617 l 0,-2.4749 c 0.673533,0.5711 1.534524,0.9272 2.49069,0.9272 2.142201,0 3.866804,-1.7247 3.866804,-3.8668 l 0,-8.8244 c 0,-2.1423 -1.724603,-3.8669 -3.866804,-3.8669 -0.956166,0 -1.817157,0.356 -2.49069,0.9271 l 0,-0.3382 -0.0057,0 c -0.0359,-3.6701 -1.918001,-6.8803 -4.767469,-8.7531 l 0.919159,-1.5953 c 0.485789,-0.8414 0.199609,-1.9097 -0.641832,-2.3954 -0.210348,-0.122 -0.434221,-0.1939 -0.660314,-0.2221 -0.678261,-0.084 -1.37094,0.2327 -1.735299,0.8637 l -1.119894,1.9388 c -0.828194,-0.2066 -1.691878,-0.3275 -2.585795,-0.3275 l -2.79972,0 c -0.893915,0 -1.757603,0.122 -2.585794,0.3275 l -1.119893,-1.9388 c -0.364331,-0.631 -1.057023,-0.9485 -1.7353,-0.8637 z m 0.06603,0.8954 c 0.289382,-0.037 0.584253,0.1013 0.739548,0.3698 l 1.059142,1.8358 c -0.477241,0.1701 -0.938896,0.3683 -1.381379,0.6021 l -0.974633,-1.6904 c -0.207078,-0.3587 -0.08391,-0.815 0.274704,-1.022 0.08953,-0.052 0.18616,-0.083 0.282618,-0.094 z m 13.549629,0 c 0.09645,0.016 0.192949,0.043 0.282617,0.094 0.358651,0.207 0.481767,0.6635 0.274692,1.022 l -0.974621,1.6906 c -0.442483,-0.2339 -0.904138,-0.4321 -1.381377,-0.6024 l 1.059141,-1.8357 c 0.1553,-0.2689 0.450167,-0.4056 0.739548,-0.3698 z m -8.016202,2.7761 2.482789,0 c 4.900345,0 8.900949,3.7099 9.357949,8.4863 l -21.198702,0 c 0.457,-4.7764 4.457603,-8.4863 9.357964,-8.4863 z m -3.333271,3.2671 c -0.591143,0 -1.067056,0.476 -1.067056,1.0671 0,0.5911 0.475913,1.067 1.067056,1.067 0.591159,0 1.067073,-0.4759 1.067073,-1.067 0,-0.5911 -0.475914,-1.0671 -1.067073,-1.0671 z m 9.128166,0 c -0.591142,0 -1.067056,0.476 -1.067056,1.0671 0,0.5911 0.475914,1.067 1.067056,1.067 0.591173,0 1.067072,-0.4759 1.067072,-1.067 0,-0.5911 -0.475899,-1.0671 -1.067072,-1.0671 z m -15.160788,5.3829 0,0.6444 -0.03172,0 c 0.0042,-0.2164 0.01505,-0.4312 0.03172,-0.6444 z m 21.214559,0 c 0.01674,0.2132 0.02767,0.428 0.03157,0.6444 l -0.03157,0 0,-0.6444 z m -21.214559,1.1885 21.214559,0 0,2.533 0,2.2451 c 0.0057,-0.016 0.0087,-0.017 0.01296,-0.025 l 0,6.8065 c 0,0.08 0.01889,0.1554 0.02379,0.235 l 0,4.3424 c 0,1.5529 -1.252062,2.8023 -2.805026,2.8023 l -15.678478,0 c -1.552977,0 -2.805026,-1.2494 -2.805026,-2.8023 l 0,-11.434 c 0.01441,0.024 0.02306,0.052 0.03705,0.077 l 0,-0.5018 0,-0.272 0,-1.4713 0,-2.533 z m -3.9249005,0.2194 c 1.3942785,0 2.5171125,1.1228 2.5171125,2.5172 l 0,8.819 c 0,1.3943 -1.122834,2.5171 -2.5171125,2.5171 -1.394268,0 -2.517118,-1.1228 -2.517118,-2.5171 l 0,-8.819 c 0,-1.3944 1.12285,-2.5172 2.517118,-2.5172 z m 29.0194575,0 c 1.394265,0 2.517129,1.1228 2.517129,2.5172 l 0,8.819 c 0,1.3943 -1.122864,2.5171 -2.517129,2.5171 -1.306674,0 -2.361634,-0.9892 -2.490691,-2.261 l 0,-7.5353 0,-1.7935 c 0.127875,-1.2729 1.183124,-2.2635 2.490691,-2.2635 z m -21.145879,19.9151 4.780674,0 c 0.0057,0.065 0.02106,0.1281 0.02106,0.1953 l 0,4.0094 c 0,1.3357 -1.075809,2.4114 -2.411457,2.4114 -1.335649,0 -2.411459,-1.0757 -2.411459,-2.4114 l 0,-4.0094 c 0,-0.065 0.01585,-0.1297 0.02106,-0.1953 z m 8.536531,0 4.780673,0 c 0.0057,0.065 0.02106,0.1281 0.02106,0.1953 l 0,4.0094 c 0,1.3357 -1.075822,2.4114 -2.411471,2.4114 -1.335635,0 -2.411457,-1.0757 -2.411457,-2.4114 l 0,-4.0094 c 0,-0.065 0.01584,-0.1297 0.02106,-0.1953 z"
       style="fill:#000000;fill-opacity:0.49803922;fill-rule:evenodd;stroke:none" />
    <path
       style="fill:#008000;stroke:none"
       d="m 18.296996,44.943281 c -0.379408,-0.134007 -0.983722,-0.537541 -1.342921,-0.89674 -0.976674,-0.976673 -1.170699,-1.720549 -1.170699,-4.488346 l 0,-2.316152 -0.664131,-0.0034 c -1.456317,-0.0075 -2.765708,-1.07024 -3.070661,-2.492188 -0.09452,-0.440739 -0.171857,-1.325278 -0.171857,-1.965645 0,-1.165575 -0.103533,-1.370022 -0.470107,-0.928326 -0.107714,0.129787 -0.575994,0.346489 -1.040622,0.48156 C 8.5531435,32.861018 6.7074213,31.987808 5.8765956,30.210075 5.5700829,29.554224 5.5445149,29.19537 5.4968516,24.880242 c -0.031291,-2.832909 0.013342,-4.975256 0.1151241,-5.525848 0.477019,-2.580433 3.0858477,-3.922467 5.3777353,-2.766415 l 0.875951,0.441839 0.08929,-0.715305 c 0.322174,-2.581059 0.716945,-3.758519 1.806102,-5.386943 0.728324,-1.0889355 1.585631,-1.9929025 2.544166,-2.6826366 l 0.443707,-0.319279 -0.560906,-1.0204447 c -0.806859,-1.4678983 -0.738213,-2.373952 0.217295,-2.8680641 1.097318,-0.5674451 1.79407,-0.2276179 2.718029,1.3256656 l 0.724273,1.2175864 0.663469,-0.1626662 c 0.815699,-0.1999898 5.714745,-0.2107089 6.679707,-0.014615 l 0.703197,0.1428993 0.66181,-1.1275581 c 0.764726,-1.3029025 1.139993,-1.6173281 1.930275,-1.6173281 0.717491,0 1.312465,0.4553989 1.554967,1.1901878 0.171667,0.5201578 0.142289,0.6430588 -0.410667,1.7179419 l -0.595561,1.1577049 1.13247,1.0335842 c 1.288547,1.176034 2.230276,2.477299 2.790363,3.85568 0.410295,1.009742 0.827774,2.919159 0.827774,3.785976 l 0,0.524837 0.898529,-0.474621 c 0.780098,-0.412063 1.02508,-0.466766 1.858655,-0.415031 1.784517,0.110755 3.173128,1.367853 3.507205,3.175045 0.09795,0.529879 0.143459,2.736669 0.113801,5.518696 -0.04612,4.326431 -0.07135,4.682669 -0.378059,5.338945 -0.57148,1.222805 -1.687002,2.069055 -3.005297,2.27986 -0.69094,0.110486 -2.236838,-0.290605 -2.543302,-0.659871 -0.0975,-0.117477 -0.231388,-0.213595 -0.297535,-0.213595 -0.06615,0 -0.146662,0.791096 -0.178923,1.757992 -0.05313,1.592539 -0.09746,1.814524 -0.470987,2.358666 -0.621826,0.905863 -1.409805,1.370885 -2.488739,1.46872 l -0.921997,0.0836 -9.38e-4,2.361352 c -9.37e-4,2.737268 -0.106918,3.237898 -0.874759,4.134945 -0.820101,0.958105 -1.63965,1.340165 -2.874752,1.340165 -1.235101,0 -2.05465,-0.38206 -2.874751,-1.340165 -0.768749,-0.898108 -0.87375,-1.397055 -0.874759,-4.156649 l -8.07e-4,-2.383056 -0.507864,6.25e-4 -0.507865,6.25e-4 -0.0016,2.538736 c -0.0016,2.507387 -0.0072,2.548874 -0.454934,3.359809 -0.960085,1.738823 -2.776287,2.448759 -4.608762,1.801521 l -4e-6,-7.8e-5 z m 2.792354,-1.445568 c 0.817932,-0.582419 0.944664,-1.096566 0.944664,-3.832496 l 0,-2.43111 -2.461189,0.04303 -2.461189,0.04303 -0.04844,1.718926 c -0.08591,3.048344 0.211231,4.051331 1.379817,4.657566 0.736866,0.382269 1.959136,0.290378 2.646338,-0.198955 l 0,0 z m 8.290753,0.112168 c 1.097909,-0.747231 1.165069,-0.956435 1.219989,-3.800321 l 0.04958,-2.567517 -2.521289,0 -2.521289,0 0.04958,2.567517 c 0.04472,2.315916 0.08162,2.610692 0.376483,3.00812 0.55473,0.747676 1.280351,1.143799 2.095222,1.143799 0.505092,0 0.896759,-0.110016 1.251717,-0.351598 z m 3.387022,-7.627907 c 0.59864,-0.226181 1.292821,-0.900526 1.553012,-1.508632 0.173835,-0.406278 0.215153,-2.124333 0.215153,-8.946226 l 0,-8.443381 -10.704218,0 -10.704217,0 0.0034,8.399295 c 0.0032,7.815248 0.02339,8.442759 0.290462,9.024359 0.311897,0.679215 0.622985,0.998082 1.346899,1.380579 0.410925,0.217122 1.523717,0.248473 9.014186,0.253957 5.672779,0.0042 8.693266,-0.04962 8.985292,-0.159951 l 0,0 z M 10.750279,30.88551 c 0.232788,-0.172429 0.58147,-0.545979 0.774849,-0.830111 0.347089,-0.509979 0.351599,-0.582777 0.351599,-5.675611 l 0,-5.159004 -0.385336,-0.657525 C 10.567914,16.987464 8.2852157,16.9755 7.1249836,18.540374 c -0.3133468,0.422629 -0.3287843,0.649382 -0.3723434,5.469134 -0.054586,6.039874 -0.00763,6.268076 1.4521851,7.057227 0.6254714,0.33812 1.9739197,0.242117 2.5454537,-0.181225 l 0,0 z m 29.142924,-0.09254 c 1.048868,-0.800011 1.066406,-0.915037 1.016,-6.663431 -0.04333,-4.941846 -0.05825,-5.165909 -0.372042,-5.589155 -1.150261,-1.551469 -3.196408,-1.551478 -4.34671,-1.9e-5 -0.312952,0.422091 -0.328918,0.652122 -0.374199,5.391175 -0.02602,2.72265 -0.0056,5.176741 0.04528,5.453537 0.114741,0.623709 0.768617,1.420929 1.40066,1.707715 0.73492,0.333465 1.987929,0.190677 2.631006,-0.299822 l 0,0 z M 13.235145,16.18818 c -0.03962,-0.152042 -0.07464,-0.06548 -0.07783,0.192358 -0.0032,0.257839 0.02923,0.382237 0.07204,0.27644 0.0428,-0.105797 0.04541,-0.316756 0.0058,-0.468798 l 0,0 z m 21.25217,0 c -0.03962,-0.152042 -0.07464,-0.06548 -0.07783,0.192358 -0.0032,0.257839 0.02923,0.382237 0.07204,0.27644 0.04281,-0.105797 0.04541,-0.316756 0.0058,-0.468798 l -8e-6,0 z m -0.03529,-1.010011 C 34.038735,12.731919 32.629414,10.513694 30.542272,9.0243397 29.335581,8.163263 28.34814,7.7387865 26.903578,7.4601547 25.412115,7.1724761 22.106128,7.1794724 20.719436,7.4732419 16.917482,8.2786827 13.989785,11.285359 13.301447,15.091344 l -0.134243,0.742264 10.697778,0 10.69778,0 -0.110737,-0.655439 0,0 z M 18.23934,7.1396172 c 0.368145,-0.1405959 0.665041,-0.333975 0.659769,-0.4297313 -0.02026,-0.3679235 -1.178703,-2.0247762 -1.495959,-2.1395743 -0.444,-0.1606605 -0.99471,0.2325034 -0.99471,0.710145 0,0.3425578 0.907153,2.1147895 1.082498,2.1147895 0.04348,0 0.380257,-0.1150329 0.748402,-0.2556289 z M 30.900017,6.3444948 c 0.560573,-1.0218198 0.57504,-1.4763095 0.05584,-1.7541788 -0.529458,-0.2833576 -0.946201,0.00541 -1.602776,1.1105881 -0.352761,0.5937858 -0.614409,1.0971426 -0.58144,1.1185706 0.343347,0.2231529 1.200902,0.5530208 1.374303,0.5286405 0.121273,-0.017051 0.460607,-0.4686803 0.754076,-1.0036204 l 0,0 z"
       id="path4749"
       inkscape:connector-curvature="0"
       transform="translate(0,1004.3622)" />
    <path
       style="fill:#008000;stroke:none"
       d="m 27.748883,12.353342 c -0.331564,-0.331564 -0.310384,-1.05373 0.04021,-1.371013 0.626483,-0.566959 1.589422,-0.101878 1.589422,0.767662 0,0.722502 -1.102348,1.130633 -1.629631,0.603351 z"
       id="path4751"
       inkscape:connector-curvature="0"
       transform="translate(0,1004.3622)" />
    <path
       style="fill:#008000;stroke:none"
       d="m 18.504406,12.209376 c -0.503129,-0.767872 0.162399,-1.658697 1.069172,-1.431111 0.481462,0.120839 0.782332,0.755328 0.593583,1.251775 -0.259355,0.682156 -1.26241,0.79034 -1.662755,0.179336 z"
       id="path4753"
       inkscape:connector-curvature="0"
       transform="translate(0,1004.3622)" />
  </g>
</svg>
