<?xml version="1.0" encoding="UTF-8" standalone="no"?>
<!-- Created with Inkscape (http://www.inkscape.org/) -->

<svg
   xmlns:dc="http://purl.org/dc/elements/1.1/"
   xmlns:cc="http://creativecommons.org/ns#"
   xmlns:rdf="http://www.w3.org/1999/02/22-rdf-syntax-ns#"
   xmlns:svg="http://www.w3.org/2000/svg"
   xmlns="http://www.w3.org/2000/svg"
   xmlns:sodipodi="http://sodipodi.sourceforge.net/DTD/sodipodi-0.dtd"
   xmlns:inkscape="http://www.inkscape.org/namespaces/inkscape"
   width="48"
   height="48"
   id="svg2"
   version="1.1"
   inkscape:version="0.48.4 r9939"
   sodipodi:docname="arduino.svg"
   inkscape:export-filename="/home/uri/workspace/NitruxforAndroid/res/drawable-xhdpi/downloads.png"
   inkscape:export-xdpi="180"
   inkscape:export-ydpi="180">
  <defs
     id="defs4" />
  <sodipodi:namedview
     id="base"
     pagecolor="#ffffff"
     bordercolor="#666666"
     borderopacity="1.0"
     inkscape:pageopacity="0.0"
     inkscape:pageshadow="2"
     inkscape:zoom="4.4161321"
     inkscape:cx="-6.4886805"
     inkscape:cy="33.387611"
     inkscape:document-units="px"
     inkscape:current-layer="layer1"
     showgrid="false"
     inkscape:window-width="1075"
     inkscape:window-height="721"
     inkscape:window-x="1752"
     inkscape:window-y="1328"
     inkscape:window-maximized="0"
     showguides="true">
    <inkscape:grid
       type="xygrid"
       id="grid3850" />
  </sodipodi:namedview>
  <metadata
     id="metadata7">
    <rdf:RDF>
      <cc:Work
         rdf:about="">
        <dc:format>image/svg+xml</dc:format>
        <dc:type
           rdf:resource="http://purl.org/dc/dcmitype/StillImage" />
        <dc:title></dc:title>
      </cc:Work>
    </rdf:RDF>
  </metadata>
  <g
     inkscape:label="Capa 1"
     inkscape:groupmode="layer"
     id="layer1"
     transform="translate(0,-1004.3622)">
    <path
       style="fill:#000000"
       d=""
       id="path906"
       inkscape:connector-curvature="0" />
    <path
       style="fill:#008080;stroke:none"
       d="m 13.715559,1037.451 c -3.771347,-0.5393 -6.5467499,-2.8406 -7.6399154,-6.3347 -1.6871252,-5.3927 2.7504774,-10.9832 8.7181944,-10.9832 3.226032,0 6.552598,1.8242 8.626233,4.7303 0.395369,0.5542 0.772511,1.0092 0.838091,1.0114 0.06558,0 0.371219,-0.3399 0.6792,-0.7599 2.246124,-3.0637 5.033177,-4.7377 8.228767,-4.9426 4.490576,-0.2878 8.360523,2.5163 9.477783,6.8672 0.347762,1.3544 0.347318,2.2579 -0.0018,3.6086 -1.012067,3.9162 -4.085628,6.4253 -8.350255,6.8169 -3.440763,0.316 -6.679727,-1.3344 -8.929326,-4.5499 -0.460132,-0.6577 -0.888914,-1.258 -0.952848,-1.3342 -0.06393,-0.076 -0.655088,0.5832 -1.313672,1.4651 -1.582034,2.1186 -3.141784,3.3211 -5.228172,4.031 -0.900136,0.3061 -3.186294,0.5121 -4.152284,0.374 z m 4.209715,-3.4689 c 1.099048,-0.5738 2.532071,-2.0569 3.604036,-3.73 0.49626,-0.7745 0.902301,-1.4759 0.902314,-1.5586 5.8e-5,-0.3545 -1.930688,-2.9009 -2.806131,-3.701 -1.179611,-1.0781 -2.210188,-1.5894 -3.680782,-1.8263 -2.88159,-0.4641 -5.472601,0.7787 -6.661987,3.1955 -0.5128,1.042 -0.597502,1.3991 -0.587801,2.4788 0.02193,2.4402 1.280903,4.2523 3.646319,5.2483 0.894405,0.3765 1.238911,0.4202 2.901878,0.3679 1.546574,-0.049 2.030438,-0.1343 2.682154,-0.4746 z m 18.239002,0.1536 c 1.38022,-0.5164 2.629328,-1.694 3.239863,-3.0544 0.432321,-0.9633 0.487625,-1.2822 0.430157,-2.4802 -0.109052,-2.2732 -1.200611,-3.9129 -3.252693,-4.8862 -1.877185,-0.8902 -4.202703,-0.8456 -6.102604,0.1172 -1.103766,0.5592 -2.700102,2.1546 -3.702734,3.7001 l -0.777213,1.1982 0.946281,1.4046 c 1.642902,2.4386 3.055407,3.7144 4.65169,4.2018 0.968943,0.2958 3.542037,0.1826 4.567253,-0.2011 z"
       id="path4460"
       inkscape:connector-curvature="0" />
    <path
       style="fill:#008080;stroke:none"
       d="m 12.187996,1028.3586 0,-0.8086 2.695698,0 2.695699,0 0,0.8086 0,0.8088 -2.695699,0 -2.695698,0 0,-0.8088 z"
       id="path4462"
       inkscape:connector-curvature="0" />
    <path
       style="fill:#008080;stroke:none"
       d="m 32.675302,1030.066 0,-0.8986 -0.898567,0 -0.898565,0 0,-0.8088 0,-0.8086 0.898565,0 0.898567,0 0,-0.8986 0,-0.8986 0.718852,0 0.718854,0 0,0.8986 0,0.8986 0.898565,0 0.898567,0 0,0.8086 0,0.8088 -0.898567,0 -0.898565,0 0,0.8986 0,0.8985 -0.718854,0 -0.718852,0 0,-0.8985 z"
       id="path4464"
       inkscape:connector-curvature="0" />
  </g>
</svg>
