<?xml version="1.0" encoding="UTF-8" standalone="no"?>
<!-- Created with Inkscape (http://www.inkscape.org/) -->

<svg
   xmlns:dc="http://purl.org/dc/elements/1.1/"
   xmlns:cc="http://creativecommons.org/ns#"
   xmlns:rdf="http://www.w3.org/1999/02/22-rdf-syntax-ns#"
   xmlns:svg="http://www.w3.org/2000/svg"
   xmlns="http://www.w3.org/2000/svg"
   xmlns:xlink="http://www.w3.org/1999/xlink"
   xmlns:sodipodi="http://sodipodi.sourceforge.net/DTD/sodipodi-0.dtd"
   xmlns:inkscape="http://www.inkscape.org/namespaces/inkscape"
   width="48"
   height="48"
   id="svg2"
   version="1.1"
   inkscape:version="0.48.4 r9939"
   sodipodi:docname="idea.svg">
  <defs
     id="defs4">
    <linearGradient
       gradientTransform="translate(-1.262207e-7,3.7778125e-5)"
       inkscape:collect="always"
       xlink:href="#linearGradient4678"
       id="linearGradient4101"
       x1="29.109528"
       y1="1049.3851"
       x2="29.109528"
       y2="1007.3748"
       gradientUnits="userSpaceOnUse" />
    <linearGradient
       inkscape:collect="always"
       id="linearGradient4678">
      <stop
         style="stop-color:#0a7fe7;stop-opacity:1"
         offset="0"
         id="stop4680" />
      <stop
         style="stop-color:#50bffc;stop-opacity:1"
         offset="1"
         id="stop4682" />
    </linearGradient>
  </defs>
  <sodipodi:namedview
     id="base"
     pagecolor="#ffffff"
     bordercolor="#666666"
     borderopacity="1.0"
     inkscape:pageopacity="0.0"
     inkscape:pageshadow="2"
     inkscape:zoom="3.2322563"
     inkscape:cx="18.326744"
     inkscape:cy="19.964256"
     inkscape:document-units="px"
     inkscape:current-layer="layer1"
     showgrid="false"
     inkscape:window-width="1038"
     inkscape:window-height="674"
     inkscape:window-x="1609"
     inkscape:window-y="1249"
     inkscape:window-maximized="0"
     showguides="false"
     borderlayer="true"
     inkscape:showpageshadow="false" />
  <metadata
     id="metadata7">
    <rdf:RDF>
      <cc:Work
         rdf:about="">
        <dc:format>image/svg+xml</dc:format>
        <dc:type
           rdf:resource="http://purl.org/dc/dcmitype/StillImage" />
        <dc:title />
      </cc:Work>
    </rdf:RDF>
  </metadata>
  <g
     inkscape:label="Capa 1"
     inkscape:groupmode="layer"
     id="layer1"
     transform="translate(0,-1004.3622)">
    <path
       style="fill:#000000"
       d=""
       id="path906"
       inkscape:connector-curvature="0" />
    <path
       style="fill:#ff6600"
       d=""
       id="path3035"
       inkscape:connector-curvature="0"
       transform="translate(0,1004.3622)" />
    <path
       style="fill:#ff6600"
       d=""
       id="path3037"
       inkscape:connector-curvature="0"
       transform="translate(0,1004.3622)" />
    <path
       style="fill:#ff6600"
       d=""
       id="path3039"
       inkscape:connector-curvature="0"
       transform="translate(0,1004.3622)" />
    <path
       style="fill:#ff6600"
       d=""
       id="path3041"
       inkscape:connector-curvature="0"
       transform="translate(0,1004.3622)" />
    <path
       style="fill:#ff6600"
       d=""
       id="path3043"
       inkscape:connector-curvature="0"
       transform="translate(0,1004.3622)" />
    <path
       style="fill:#ff6600"
       d=""
       id="path3045"
       inkscape:connector-curvature="0"
       transform="translate(0,1004.3622)" />
    <path
       style="fill:#ff6600"
       d=""
       id="path3047"
       inkscape:connector-curvature="0"
       transform="translate(0,1004.3622)" />
    <path
       style="fill:#ff6600"
       d=""
       id="path3049"
       inkscape:connector-curvature="0"
       transform="translate(0,1004.3622)" />
    <path
       style="fill:#0000ff"
       d="m 6.4056403,1045.8519 c -0.8486079,-0.73 -1.3164086,-1.6603 -1.4915971,-2.9665 -0.2249106,-1.6768 -0.096168,-2.0619 1.0835803,-3.2418 1.058941,-1.0587 1.8995157,-1.4055 4.0209875,-1.6586 3.452758,-0.4115 5.231477,-1.2557 7.171968,-3.4035 2.063377,-2.284 2.527057,-4.1702 2.530094,-10.2927 l 0.0025,-5.0969 -5.323443,-7e-4 c -6.0101362,-7e-4 -8.0462101,-0.6426 -9.1038549,-2.8694 -0.8316461,-1.751 -0.3193049,-4.1174 1.1400004,-5.2653 1.1091532,-0.8725 1.7878925,-0.9258 11.7909615,-0.9258 l 10.614062,0 -0.141533,11.4514 -0.141536,11.4514 -1.54928,3.1449 c -3.164276,6.4233 -8.884937,10.2756 -15.704528,10.5757 -3.3154123,0.1459 -3.7790662,0.061 -4.8984014,-0.9022 z"
       id="path3010"
       inkscape:connector-curvature="0" />
    <path
       style="fill:#0000ff"
       d="m 35.466992,1046.3392 c -2.025855,-1.1799 -2.152022,-2.2483 -2.152022,-18.2232 0,-14.9445 0.01274,-15.1518 1.019383,-16.6412 1.175376,-1.7391 2.652469,-2.2632 4.78874,-1.699 1.163794,0.3074 1.69965,0.8279 2.368611,2.3015 0.789578,1.7393 0.865193,3.1027 0.871971,15.7227 0.0044,8.1059 -0.185275,14.5121 -0.458713,15.4966 -0.803281,2.8924 -4.056367,4.4298 -6.43797,3.0426 l 0,0 z"
       id="path3012"
       inkscape:connector-curvature="0" />
    <path
       style="fill:#ff6600"
       d="m 7.504627,1033.1453 c -0.5638592,-0.2928 -1.4199214,-1.0981 -1.9023617,-1.7896 -2.7259354,-3.9074 1.0946415,-9.2856 5.7128657,-8.042 2.224484,0.5989 4.135705,2.9874 4.135705,5.1683 0,1.3648 -0.987248,3.226 -2.203313,4.1534 -1.426762,1.0883 -4.1613156,1.3311 -5.742896,0.5099 l 0,0 z"
       id="path4284"
       inkscape:connector-curvature="0" />
  </g>
</svg>
