<?xml version="1.0" encoding="UTF-8" standalone="no"?>
<!-- Created with Inkscape (http://www.inkscape.org/) -->

<svg
   xmlns:dc="http://purl.org/dc/elements/1.1/"
   xmlns:cc="http://creativecommons.org/ns#"
   xmlns:rdf="http://www.w3.org/1999/02/22-rdf-syntax-ns#"
   xmlns:svg="http://www.w3.org/2000/svg"
   xmlns="http://www.w3.org/2000/svg"
   xmlns:xlink="http://www.w3.org/1999/xlink"
   xmlns:sodipodi="http://sodipodi.sourceforge.net/DTD/sodipodi-0.dtd"
   xmlns:inkscape="http://www.inkscape.org/namespaces/inkscape"
   width="48"
   height="48"
   id="svg2"
   version="1.1"
   inkscape:version="0.48.4 r9939"
   sodipodi:docname="idea.svg">
  <defs
     id="defs4">
    <linearGradient
       gradientTransform="translate(-1.262207e-7,3.7778125e-5)"
       inkscape:collect="always"
       xlink:href="#linearGradient4678"
       id="linearGradient4101"
       x1="29.109528"
       y1="1049.3851"
       x2="29.109528"
       y2="1007.3748"
       gradientUnits="userSpaceOnUse" />
    <linearGradient
       inkscape:collect="always"
       id="linearGradient4678">
      <stop
         style="stop-color:#0a7fe7;stop-opacity:1"
         offset="0"
         id="stop4680" />
      <stop
         style="stop-color:#50bffc;stop-opacity:1"
         offset="1"
         id="stop4682" />
    </linearGradient>
  </defs>
  <sodipodi:namedview
     id="base"
     pagecolor="#ffffff"
     bordercolor="#666666"
     borderopacity="1.0"
     inkscape:pageopacity="0.0"
     inkscape:pageshadow="2"
     inkscape:zoom="3.2322563"
     inkscape:cx="18.326744"
     inkscape:cy="19.964256"
     inkscape:document-units="px"
     inkscape:current-layer="layer1"
     showgrid="false"
     inkscape:window-width="1038"
     inkscape:window-height="674"
     inkscape:window-x="1609"
     inkscape:window-y="1249"
     inkscape:window-maximized="0"
     showguides="false"
     borderlayer="true"
     inkscape:showpageshadow="false" />
  <metadata
     id="metadata7">
    <rdf:RDF>
      <cc:Work
         rdf:about="">
        <dc:format>image/svg+xml</dc:format>
        <dc:type
           rdf:resource="http://purl.org/dc/dcmitype/StillImage" />
        <dc:title />
      </cc:Work>
    </rdf:RDF>
  </metadata>
  <g
     inkscape:label="Capa 1"
     inkscape:groupmode="layer"
     id="layer1"
     transform="translate(0,-1004.3622)">
    <path
       style="fill:#000000"
       d=""
       id="path906"
       inkscape:connector-curvature="0" />
    <path
       style="fill:#ff6600"
       d=""
       id="path3035"
       inkscape:connector-curvature="0"
       transform="translate(0,1004.3622)" />
    <path
       style="fill:#ff6600"
       d=""
       id="path3037"
       inkscape:connector-curvature="0"
       transform="translate(0,1004.3622)" />
    <path
       style="fill:#ff6600"
       d=""
       id="path3039"
       inkscape:connector-curvature="0"
       transform="translate(0,1004.3622)" />
    <path
       style="fill:#ff6600"
       d=""
       id="path3041"
       inkscape:connector-curvature="0"
       transform="translate(0,1004.3622)" />
    <path
       style="fill:#ff6600"
       d=""
       id="path3043"
       inkscape:connector-curvature="0"
       transform="translate(0,1004.3622)" />
    <path
       style="fill:#ff6600"
       d=""
       id="path3045"
       inkscape:connector-curvature="0"
       transform="translate(0,1004.3622)" />
    <path
       style="fill:#ff6600"
       d=""
       id="path3047"
       inkscape:connector-curvature="0"
       transform="translate(0,1004.3622)" />
    <path
       style="fill:#ff6600"
       d=""
       id="path3049"
       inkscape:connector-curvature="0"
       transform="translate(0,1004.3622)" />
    <path
       style="fill:#0000ff"
       d="m 7.8116808,1044.7277 c -0.7789186,-0.67 -1.2083027,-1.5239 -1.3691043,-2.7229 -0.2064406,-1.5391 -0.088271,-1.8925 0.9945946,-2.9755 0.9719788,-0.9718 1.7435239,-1.2901 3.6907769,-1.5224 3.169211,-0.3777 4.801858,-1.1526 6.582992,-3.124 1.893929,-2.0965 2.31953,-3.8278 2.322318,-9.4475 l 0.0023,-4.6783 -4.886272,-6e-4 c -5.516573,-7e-4 -7.3854404,-0.5899 -8.3562294,-2.6338 -0.7633498,-1.6072 -0.293083,-3.7793 1.0463814,-4.8329 1.018067,-0.8009 1.641067,-0.8498 10.822666,-0.8498 l 9.742415,0 -0.12991,10.511 -0.129913,10.511 -1.42205,2.8866 c -2.90442,5.8958 -8.155289,9.4318 -14.414843,9.7072 -3.043144,0.134 -3.468722,0.056 -4.4961353,-0.8281 z"
       id="path3010"
       inkscape:connector-curvature="0" />
    <path
       style="fill:#0000ff"
       d="m 34.48646,1045.175 c -1.859488,-1.083 -1.975294,-2.0637 -1.975294,-16.7267 0,-13.7172 0.01169,-13.9075 0.935669,-15.2746 1.078852,-1.5962 2.434643,-2.0773 4.39548,-1.5594 1.068221,0.2821 1.560071,0.7599 2.174096,2.1125 0.724736,1.5964 0.794142,2.8479 0.800363,14.4315 0.004,7.4402 -0.17006,13.3203 -0.421042,14.224 -0.737315,2.6548 -3.723251,4.066 -5.909272,2.7927 l 0,0 z"
       id="path3012"
       inkscape:connector-curvature="0" />
    <path
       style="fill:#ff6600"
       d="m 8.820417,1033.0646 c -0.5175544,-0.2687 -1.3033151,-1.0079 -1.7461365,-1.6426 -2.5020765,-3.5865 1.0047475,-8.5231 5.2437145,-7.3816 2.041805,0.5497 3.796073,2.7421 3.796073,4.7439 0,1.2527 -0.906173,2.961 -2.022373,3.8123 -1.309593,0.9989 -3.81958,1.2218 -5.271278,0.468 l 0,0 z"
       id="path4284"
       inkscape:connector-curvature="0" />
  </g>
</svg>
