<?xml version="1.0" encoding="UTF-8" standalone="no"?>
<!-- Created with Inkscape (http://www.inkscape.org/) -->

<svg
   xmlns:dc="http://purl.org/dc/elements/1.1/"
   xmlns:cc="http://creativecommons.org/ns#"
   xmlns:rdf="http://www.w3.org/1999/02/22-rdf-syntax-ns#"
   xmlns:svg="http://www.w3.org/2000/svg"
   xmlns="http://www.w3.org/2000/svg"
   xmlns:xlink="http://www.w3.org/1999/xlink"
   xmlns:sodipodi="http://sodipodi.sourceforge.net/DTD/sodipodi-0.dtd"
   xmlns:inkscape="http://www.inkscape.org/namespaces/inkscape"
   width="48"
   height="48"
   id="svg2"
   version="1.1"
   inkscape:version="0.48.4 r9939"
   sodipodi:docname="idea.svg">
  <defs
     id="defs4">
    <linearGradient
       gradientTransform="translate(-1.262207e-7,3.7778125e-5)"
       inkscape:collect="always"
       xlink:href="#linearGradient4678"
       id="linearGradient4101"
       x1="29.109528"
       y1="1049.3851"
       x2="29.109528"
       y2="1007.3748"
       gradientUnits="userSpaceOnUse" />
    <linearGradient
       inkscape:collect="always"
       id="linearGradient4678">
      <stop
         style="stop-color:#0a7fe7;stop-opacity:1"
         offset="0"
         id="stop4680" />
      <stop
         style="stop-color:#50bffc;stop-opacity:1"
         offset="1"
         id="stop4682" />
    </linearGradient>
  </defs>
  <sodipodi:namedview
     id="base"
     pagecolor="#ffffff"
     bordercolor="#666666"
     borderopacity="1.0"
     inkscape:pageopacity="0.0"
     inkscape:pageshadow="2"
     inkscape:zoom="3.2322563"
     inkscape:cx="18.326744"
     inkscape:cy="19.964256"
     inkscape:document-units="px"
     inkscape:current-layer="layer1"
     showgrid="false"
     inkscape:window-width="1038"
     inkscape:window-height="674"
     inkscape:window-x="1609"
     inkscape:window-y="1249"
     inkscape:window-maximized="0"
     showguides="false"
     borderlayer="true"
     inkscape:showpageshadow="false" />
  <metadata
     id="metadata7">
    <rdf:RDF>
      <cc:Work
         rdf:about="">
        <dc:format>image/svg+xml</dc:format>
        <dc:type
           rdf:resource="http://purl.org/dc/dcmitype/StillImage" />
        <dc:title />
      </cc:Work>
    </rdf:RDF>
  </metadata>
  <g
     inkscape:label="Capa 1"
     inkscape:groupmode="layer"
     id="layer1"
     transform="translate(0,-1004.3622)">
    <path
       style="fill:#000000"
       d=""
       id="path906"
       inkscape:connector-curvature="0" />
    <path
       style="fill:#ff6600"
       d=""
       id="path3035"
       inkscape:connector-curvature="0"
       transform="translate(0,1004.3622)" />
    <path
       style="fill:#ff6600"
       d=""
       id="path3037"
       inkscape:connector-curvature="0"
       transform="translate(0,1004.3622)" />
    <path
       style="fill:#ff6600"
       d=""
       id="path3039"
       inkscape:connector-curvature="0"
       transform="translate(0,1004.3622)" />
    <path
       style="fill:#ff6600"
       d=""
       id="path3041"
       inkscape:connector-curvature="0"
       transform="translate(0,1004.3622)" />
    <path
       style="fill:#ff6600"
       d=""
       id="path3043"
       inkscape:connector-curvature="0"
       transform="translate(0,1004.3622)" />
    <path
       style="fill:#ff6600"
       d=""
       id="path3045"
       inkscape:connector-curvature="0"
       transform="translate(0,1004.3622)" />
    <path
       style="fill:#ff6600"
       d=""
       id="path3047"
       inkscape:connector-curvature="0"
       transform="translate(0,1004.3622)" />
    <path
       style="fill:#ff6600"
       d=""
       id="path3049"
       inkscape:connector-curvature="0"
       transform="translate(0,1004.3622)" />
    <path
       style="fill:#0000ff"
       d="m 4.4512704,1047.8939 c -0.9531419,-0.8199 -1.4785676,-1.8648 -1.6753363,-3.3319 -0.2526157,-1.8834 -0.1080144,-2.3159 1.2170588,-3.6411 1.1893843,-1.1892 2.1335034,-1.5787 4.516304,-1.8629 3.8780781,-0.4622 5.8759051,-1.4104 8.0554311,-3.8228 2.31755,-2.5653 2.838347,-4.6839 2.841758,-11.5606 l 0.0028,-5.7247 -5.9792,-8e-4 c -6.750481,-8e-4 -9.0373642,-0.7218 -10.2252927,-3.2229 -0.9340906,-1.9667 -0.3586378,-4.6246 1.2804288,-5.9139 1.2457819,-0.9799 2.0081302,-1.0398 13.2434049,-1.0398 l 11.921533,0 -0.158968,12.862 -0.158971,12.862 -1.740124,3.5323 c -3.554061,7.2145 -9.979409,11.5414 -17.6390566,11.8785 -3.7238139,0.1638 -4.244582,0.068 -5.5018,-1.0134 z"
       id="path3010"
       inkscape:connector-curvature="0" />
    <path
       style="fill:#0000ff"
       d="m 37.092481,1048.4413 c -2.275405,-1.3253 -2.417114,-2.5253 -2.417114,-20.468 0,-16.7854 0.01431,-17.0183 1.144954,-18.6911 1.320162,-1.9534 2.979207,-2.542 5.37863,-1.9083 1.307153,0.3452 1.909018,0.9299 2.660383,2.585 0.886841,1.9535 0.97177,3.4849 0.979383,17.6594 0.0049,9.1045 -0.208098,16.2998 -0.515218,17.4056 -0.902232,3.2486 -4.556042,4.9754 -7.231018,3.4174 l 0,0 z"
       id="path3012"
       inkscape:connector-curvature="0" />
    <path
       style="fill:#ff6600"
       d="m 5.6856333,1033.6221 c -0.6333169,-0.3289 -1.5948313,-1.2334 -2.1366999,-2.0101 -3.06172393,-4.3887 1.2294825,-10.4294 6.416593,-9.0326 2.4985016,0.6727 4.6451526,3.3554 4.6451526,5.805 0,1.5329 -1.10886,3.6233 -2.474724,4.665 -1.602514,1.2223 -4.6739177,1.495 -6.4503217,0.5727 l 0,0 z"
       id="path4284"
       inkscape:connector-curvature="0" />
  </g>
</svg>
