<?xml version="1.0" encoding="UTF-8" standalone="no"?>
<!-- Created with Inkscape (http://www.inkscape.org/) -->

<svg
   xmlns:dc="http://purl.org/dc/elements/1.1/"
   xmlns:cc="http://creativecommons.org/ns#"
   xmlns:rdf="http://www.w3.org/1999/02/22-rdf-syntax-ns#"
   xmlns:svg="http://www.w3.org/2000/svg"
   xmlns="http://www.w3.org/2000/svg"
   xmlns:sodipodi="http://sodipodi.sourceforge.net/DTD/sodipodi-0.dtd"
   xmlns:inkscape="http://www.inkscape.org/namespaces/inkscape"
   width="48"
   height="48"
   id="svg2"
   version="1.1"
   inkscape:version="0.48.4 r9939"
   sodipodi:docname="phpstorm.svg">
  <defs
     id="defs4" />
  <sodipodi:namedview
     id="base"
     pagecolor="#ffffff"
     bordercolor="#666666"
     borderopacity="1.0"
     inkscape:pageopacity="0.0"
     inkscape:pageshadow="2"
     inkscape:zoom="9.0356456"
     inkscape:cx="25.025601"
     inkscape:cy="16.716597"
     inkscape:document-units="px"
     inkscape:current-layer="layer1"
     showgrid="false"
     inkscape:window-width="1239"
     inkscape:window-height="740"
     inkscape:window-x="1290"
     inkscape:window-y="1178"
     inkscape:window-maximized="0"
     width="0px"
     height="0px"
     fit-margin-top="0"
     fit-margin-left="0"
     fit-margin-right="0"
     fit-margin-bottom="0">
    <inkscape:grid
       type="xygrid"
       id="grid3850"
       empspacing="5"
       visible="true"
       enabled="true"
       snapvisiblegridlinesonly="true" />
  </sodipodi:namedview>
  <metadata
     id="metadata7">
    <rdf:RDF>
      <cc:Work
         rdf:about="">
        <dc:format>image/svg+xml</dc:format>
        <dc:type
           rdf:resource="http://purl.org/dc/dcmitype/StillImage" />
        <dc:title></dc:title>
      </cc:Work>
    </rdf:RDF>
  </metadata>
  <g
     inkscape:label="Capa 1"
     inkscape:groupmode="layer"
     id="layer1"
     transform="translate(0,-1004.3622)">
    <path
       style="fill:#800080"
       d="m 0.05952829,1032.3352 0,-13.6681 6.08700301,0 6.0870027,0 0,10.4032 0,10.4033 1.494083,0 1.494082,0 0,-4.5125 0,-4.5126 0.716415,-0.3639 c 0.893155,-0.4537 1.416072,-0.4485 1.762728,0.017 0.2258,0.3035 0.23325,0.4398 0.264675,4.842 l 0.03234,4.5296 1.49356,0 1.49356,0 -0.03181,-5.174 c -0.03078,-5.0064 -0.03943,-5.1904 -0.266917,-5.6822 -0.457194,-0.9885 -1.204977,-1.4556 -2.320173,-1.4491 -0.787345,0 -1.76548,0.3982 -2.618675,1.0539 l -0.525696,0.404 0,-4.9795 0,-4.9796 6.640367,0 6.640366,0 0,0.7114 c 0,2.2162 0.754329,4.7179 2.021313,6.7037 0.712247,1.1163 1.194517,1.675 3.298391,3.8211 1.075673,1.0973 2.135438,2.2759 2.355033,2.6192 1.386694,2.1677 0.45364,4.0954 -5.439605,11.2381 l -1.847777,2.2395 -1.853769,0 -1.853769,0 0,-3.5087 0,-3.5086 0.415023,0.4044 c 0.538921,0.5251 1.143407,0.7695 1.921881,0.7768 1.719233,0.016 2.862813,-0.9577 3.348452,-2.8517 0.439392,-1.7136 0.506792,-5.8229 0.125083,-7.6261 -0.401607,-1.8971 -1.425592,-2.8319 -3.098956,-2.829 -0.889177,0 -1.487913,0.2261 -2.234764,0.8381 l -0.476719,0.3906 0,-0.575 0,-0.575 -0.525696,0.066 c -0.289132,0.036 -1.036174,0.1 -1.660091,0.1408 l -1.134396,0.075 0,9.3913 0,9.3914 -8.023777,0 -8.0237757,0 0,-3.4991 0,-3.499 0.454913,0.4109 c 0.594577,0.5372 1.112388,0.7439 1.881991,0.7511 1.845117,0.017 3.0045637,-1.0989 3.4792097,-3.3497 0.229437,-1.0881 0.32694,-4.2695 0.178072,-5.8104 -0.17399,-1.8009 -0.459487,-2.6149 -1.161912,-3.3131 -0.6499727,-0.646 -1.1411777,-0.8371 -2.1521237,-0.8371 -0.779197,0 -1.393206,0.232 -2.154454,0.814 l -0.525696,0.4019 0,-0.5668 0,-0.5669 -0.525696,0.066 c -0.289139,0.036 -1.036181,0.1 -1.660098,0.1408 l -1.134396,0.075 0,9.3913 0,9.3914 -1.217401,0 -1.21740101,0 0,-13.6681 z"
       id="path3500"
       inkscape:connector-curvature="0" />
    <path
       style="fill:#800080"
       d="m 25.778206,1037.3789 c -0.605929,-0.4676 -0.588676,-0.3521 -0.592437,-3.9651 l -0.0035,-3.3814 0.359687,-0.3461 c 0.738762,-0.7108 1.458446,-0.581 1.900404,0.3429 0.583393,1.2195 0.67154,4.6443 0.167694,6.5155 -0.261942,0.9728 -1.136364,1.371 -1.831828,0.8342 z"
       id="path3502"
       inkscape:connector-curvature="0" />
    <path
       style="fill:#800080;stroke:none"
       d="m 6.2441843,1037.1957 -0.429671,-0.4297 0,-3.3771 0,-3.377 0.389384,-0.3419 c 0.480293,-0.4217 0.845045,-0.5214 1.267461,-0.3464 0.676396,0.2801 0.97787,1.2448 1.072634,3.4322 0.105715,2.4401 -0.197813,4.1605 -0.820477,4.6503 -0.461887,0.3633 -0.979186,0.2897 -1.479331,-0.2104 z"
       id="path3504"
       inkscape:connector-curvature="0" />
    <path
       style="fill:#ff6600;stroke:none"
       d="m 32.680242,1044.3155 c 2.612774,-2.6297 4.101104,-4.5536 5.05926,-6.5399 0.617628,-1.2804 0.856286,-2.2149 0.852323,-3.3376 -0.0053,-1.5011 -0.494288,-2.5376 -1.747892,-3.7049 -3.919907,-3.65 -5.272541,-5.6451 -6.042022,-8.9118 -0.19144,-0.8128 -0.23588,-1.3627 -0.241465,-2.9882 -0.006,-1.7344 0.02683,-2.1281 0.25344,-3.0435 0.662156,-2.6747 2.201025,-5.587 3.964474,-7.5029 l 0.641121,-0.6965 6.079591,0.032 6.079592,0.033 -2.430088,2.4348 c -1.336548,1.3391 -2.719782,2.8231 -3.073852,3.2976 -2.34637,3.145 -2.571976,5.9717 -0.695204,8.7104 0.187709,0.2739 0.891007,1.0956 1.562886,1.8261 0.671877,0.7304 1.450659,1.6269 1.730624,1.9921 1.681166,2.1931 2.746539,4.4972 3.151529,6.8159 0.265736,1.5214 0.162982,3.9879 -0.224858,5.3975 -0.733281,2.665 -1.956895,4.8674 -3.969913,7.1455 l -0.643515,0.7282 -5.991453,0 -5.991454,0 1.676876,-1.6878 z"
       id="path4278"
       inkscape:connector-curvature="0" />
  </g>
</svg>
