<?xml version="1.0" encoding="UTF-8" standalone="no"?>
<!-- Created with Inkscape (http://www.inkscape.org/) -->

<svg
   xmlns:dc="http://purl.org/dc/elements/1.1/"
   xmlns:cc="http://creativecommons.org/ns#"
   xmlns:rdf="http://www.w3.org/1999/02/22-rdf-syntax-ns#"
   xmlns:svg="http://www.w3.org/2000/svg"
   xmlns="http://www.w3.org/2000/svg"
   xmlns:sodipodi="http://sodipodi.sourceforge.net/DTD/sodipodi-0.dtd"
   xmlns:inkscape="http://www.inkscape.org/namespaces/inkscape"
   width="48"
   height="48"
   id="svg2"
   version="1.1"
   inkscape:version="0.48.4 r9939"
   sodipodi:docname="phpstorm.svg">
  <defs
     id="defs4" />
  <sodipodi:namedview
     id="base"
     pagecolor="#ffffff"
     bordercolor="#666666"
     borderopacity="1.0"
     inkscape:pageopacity="0.0"
     inkscape:pageshadow="2"
     inkscape:zoom="9.0356456"
     inkscape:cx="25.025601"
     inkscape:cy="16.771934"
     inkscape:document-units="px"
     inkscape:current-layer="layer1"
     showgrid="false"
     inkscape:window-width="1239"
     inkscape:window-height="740"
     inkscape:window-x="3099"
     inkscape:window-y="1176"
     inkscape:window-maximized="0"
     width="0px"
     height="0px"
     fit-margin-top="0"
     fit-margin-left="0"
     fit-margin-right="0"
     fit-margin-bottom="0">
    <inkscape:grid
       type="xygrid"
       id="grid3850"
       empspacing="5"
       visible="true"
       enabled="true"
       snapvisiblegridlinesonly="true" />
  </sodipodi:namedview>
  <metadata
     id="metadata7">
    <rdf:RDF>
      <cc:Work
         rdf:about="">
        <dc:format>image/svg+xml</dc:format>
        <dc:type
           rdf:resource="http://purl.org/dc/dcmitype/StillImage" />
        <dc:title></dc:title>
      </cc:Work>
    </rdf:RDF>
  </metadata>
  <g
     inkscape:label="Capa 1"
     inkscape:groupmode="layer"
     id="layer1"
     transform="translate(0,-1004.3622)">
    <path
       style="fill:#000000;fill-opacity:0.49803922;stroke:none"
       d="m 35.390692,1008.3396 c -3.726451,3.8778 -4.921767,8.2291 -4.921767,10.9805 0,3.6008 0.821855,7.2364 5.266511,11.2932 2.20551,1.7439 7.143954,5.2516 -4.880204,16.2813 l 12.178504,0 c 5.552304,-5.6585 8.017961,-14.1899 -0.193154,-22.4009 -7.138355,-7.0227 2.081945,-12.6721 4.955997,-16.1541 l -12.405887,0 z m -35.35457966,11.1026 0,27.4524 0.60146803,0 1.92909913,0 0,-18.78 3.2053843,-0.2688 0,1.2372 c 0.1781724,-0.1783 0.3692377,-0.3478 0.5696833,-0.5111 0.2078672,-0.1708 0.4227631,-0.3213 0.6454777,-0.4475 0.2301383,-0.1335 0.4713104,-0.2411 0.7237177,-0.3227 0.2524083,-0.081 0.5126971,-0.1216 0.7799529,-0.1216 0.5864829,0 1.0759858,0.1049 1.4694382,0.3129 0.4008894,0.2005 0.7280344,0.4702 0.9804434,0.8118 0.252408,0.3415 0.44104,0.7379 0.567238,1.1908 0.133641,0.4451 0.226764,0.9132 0.278727,1.4033 0.05194,0.4825 0.07824,0.972 0.07824,1.4694 0.0076,0.4899 0.0097,0.9557 0.0097,1.3937 0,0.4009 -0.0071,0.8449 -0.02201,1.3349 -0.0149,0.4899 -0.06018,0.9844 -0.134472,1.4817 -0.06686,0.4974 -0.174262,0.9798 -0.322741,1.4476 -0.148468,0.4675 -0.358574,0.883 -0.633254,1.2466 -0.267253,0.364 -0.606371,0.6576 -1.0146711,0.8803 -0.4083106,0.2153 -0.9097737,0.3229 -1.5036695,0.3229 -0.4157225,0 -0.7738559,-0.075 -1.07824,-0.2226 -0.3043722,-0.1409 -0.562305,-0.3011 -0.7701733,-0.4792 -0.2449835,-0.2005 -0.452723,-0.4345 -0.6234727,-0.7017 l 0,7.3228 16.1491706,0 0,-18.7801 3.207828,-0.2689 0,1.2372 c 0.178174,-0.1782 0.366795,-0.3503 0.567238,-0.5134 0.207867,-0.1708 0.422763,-0.319 0.645478,-0.4451 0.230136,-0.1335 0.471322,-0.241 0.723718,-0.3227 0.252408,-0.081 0.512698,-0.1216 0.779952,-0.1216 0.586485,0 1.075988,0.1028 1.469439,0.3105 0.400889,0.2004 0.728035,0.4726 0.980444,0.8141 0.252407,0.3416 0.441039,0.738 0.567235,1.1908 0.133642,0.4452 0.226767,0.9134 0.278732,1.4033 0.05194,0.4824 0.07824,0.972 0.07824,1.4695 0.0076,0.49 0.01216,0.9558 0.01216,1.3936 0,0.4011 -0.0095,0.8451 -0.02446,1.335 -0.0149,0.49 -0.05786,0.9842 -0.132041,1.4817 -0.06685,0.4974 -0.174255,0.9798 -0.322736,1.4475 -0.148468,0.4676 -0.361021,0.8833 -0.635699,1.2468 -0.267256,0.3638 -0.603928,0.6575 -1.012224,0.8802 -0.408313,0.2152 -0.909776,0.3228 -1.503671,0.3228 -0.415722,0 -0.776304,-0.074 -1.080689,-0.2226 -0.304369,-0.1409 -0.559859,-0.301 -0.767726,-0.4791 -0.244985,-0.2005 -0.452722,-0.4344 -0.623473,-0.7017 l 0,7.3227 3.806852,0 c 10.146292,-11.9686 9.13871,-12.0252 4.880204,-16.2837 -4.393569,-4.0104 -5.247434,-7.6081 -5.266514,-11.1687 l -13.374103,0 0,10.186 c 0.604586,-0.5643 1.185725,-0.9776 1.74328,-1.2397 0.557568,-0.262 1.084806,-0.3936 1.581909,-0.3936 0.362744,0 0.695264,0.071 0.997557,0.2126 0.30228,0.135 0.562543,0.3291 0.777507,0.5845 0.221674,0.2484 0.392534,0.554 0.513448,0.9169 0.127636,0.3624 0.190709,0.7698 0.190709,1.2199 l 0,9.2885 -2.902203,0 0,-8.2518 c 0,-0.5307 -0.09622,-0.9141 -0.290954,-1.1492 -0.188102,-0.2351 -0.427535,-0.3521 -0.716383,-0.3521 -0.268708,0 -0.550397,0.075 -0.845968,0.2226 -0.295584,0.1408 -0.645849,0.3327 -1.048902,0.5746 l 0,8.9559 -2.89976,0 0,-20.7751 -11.63816054,0 -0.60146802,0 z m 7.10759146,10.543 c -0.2078671,0 -0.3989325,0.049 -0.5696832,0.1438 -0.1633141,0.089 -0.3041958,0.1892 -0.4229839,0.3008 -0.1410407,0.1334 -0.2676096,0.2816 -0.3789729,0.4449 l 0,6.626 c 0.089139,0.1931 0.2013428,0.3649 0.3349631,0.5135 0.111413,0.1261 0.2522352,0.243 0.4229827,0.3544 0.1781756,0.1039 0.3907145,0.1566 0.6356992,0.1566 0.2227135,0 0.4208497,-0.055 0.5990231,-0.1663 0.1855852,-0.1113 0.3455965,-0.3239 0.4792179,-0.6358 0.133642,-0.3117 0.2387254,-0.7464 0.3129582,-1.3032 0.074237,-0.5566 0.1100332,-1.2754 0.1100332,-2.1588 0,-0.8019 -0.03095,-1.4752 -0.097796,-2.0172 -0.066846,-0.5494 -0.1647577,-0.9911 -0.2909543,-1.3252 -0.1262129,-0.334 -0.2861992,-0.5703 -0.479219,-0.7115 -0.1930208,-0.1485 -0.4102737,-0.2223 -0.6552572,-0.2223 z m 19.3545532,0 c -0.207867,0 -0.396488,0.049 -0.567237,0.1438 -0.163328,0.089 -0.304197,0.1892 -0.422984,0.3008 -0.141057,0.1334 -0.267611,0.2816 -0.378974,0.4449 l 0,6.626 c 0.08914,0.1931 0.201331,0.3649 0.334963,0.5135 0.111294,0.1261 0.252234,0.243 0.422985,0.3544 0.178174,0.1039 0.388269,0.1566 0.633251,0.1566 0.222716,0 0.423296,-0.055 0.60147,-0.1663 0.185583,-0.1113 0.345598,-0.3239 0.479219,-0.6358 0.133642,-0.3117 0.23628,-0.7464 0.310514,-1.3032 0.07424,-0.5566 0.112466,-1.2754 0.112466,-2.1588 0,-0.8019 -0.03352,-1.4752 -0.100242,-2.0172 -0.06686,-0.5494 -0.162309,-0.9911 -0.288508,-1.3252 -0.126213,-0.334 -0.286211,-0.5703 -0.479219,-0.7115 -0.193019,-0.1485 -0.412718,-0.2223 -0.657703,-0.2223 z"
       id="rect4080-8"
       inkscape:connector-curvature="0" />
    <path
       style="fill:#800080"
       d="m 0.10209145,28.793265 0,-13.668088 6.08700275,0 6.0870028,0 0,10.403241 0,10.403241 1.494083,0 1.494082,0 0,-4.512534 0,-4.512535 0.716415,-0.363924 c 0.893155,-0.453707 1.416072,-0.448535 1.762728,0.01743 0.2258,0.303516 0.23325,0.439796 0.264675,4.841934 l 0.03234,4.529627 1.49356,0 1.49356,0 -0.03181,-5.173952 c -0.03078,-5.006437 -0.03943,-5.19041 -0.266917,-5.682272 -0.457194,-0.988501 -1.204977,-1.455542 -2.320173,-1.449109 -0.787345,0.0045 -1.76548,0.398206 -2.618675,1.053921 l -0.525696,0.404018 0,-4.979544 0,-4.979544 6.640367,0 6.640366,0 0,0.711365 c 0,2.216196 0.754329,4.717939 2.021313,6.703711 0.712247,1.116324 1.194517,1.675023 3.298391,3.821117 1.075673,1.097259 2.135438,2.275884 2.355033,2.619168 1.386694,2.167751 0.45364,4.095421 -5.439605,11.238093 l -1.847777,2.239526 -1.853769,0.0016 -1.853769,0.0016 0,-3.508653 0,-3.508654 0.415023,0.404413 c 0.538921,0.525142 1.143407,0.769468 1.921881,0.776801 1.719233,0.01619 2.862813,-0.95774 3.348452,-2.85172 0.439392,-1.713616 0.506792,-5.822892 0.125083,-7.626042 -0.401607,-1.897146 -1.425592,-2.831938 -3.098956,-2.829024 -0.889177,0.0016 -1.487913,0.226085 -2.234764,0.838073 l -0.476719,0.390635 0,-0.575031 0,-0.575032 -0.525696,0.06616 c -0.289132,0.03639 -1.036174,0.09972 -1.660091,0.140752 l -1.134396,0.0746 0,9.391365 0,9.391365 -8.023777,0 -8.0237761,0 0,-3.49907 0,-3.499071 0.4549134,0.410987 c 0.594577,0.537165 1.1123882,0.743811 1.881991,0.751061 1.8451167,0.01738 3.0045637,-1.098924 3.4792097,-3.349747 0.229437,-1.088016 0.32694,-4.269445 0.178072,-5.810321 -0.17399,-1.8009 -0.459487,-2.614981 -1.161912,-3.313143 -0.649973,-0.646028 -1.1411781,-0.837086 -2.152124,-0.837086 -0.7791968,0 -1.3932055,0.231989 -2.1544544,0.814011 l -0.5256957,0.401927 0,-0.566891 0,-0.566891 -0.5256957,0.06616 C 5.0422476,23.499662 4.2952063,23.563 3.6712885,23.604028 l -1.1343959,0.0746 0,9.391365 0,9.391365 -1.2174006,0 -1.21740055,0 0,-13.668088 z"
       id="path3500"
       inkscape:connector-curvature="0"
       transform="translate(0,1004.3622)" />
    <path
       style="fill:#800080"
       d="M 25.820769,33.83701 C 25.21484,33.369358 25.232093,33.484829 25.228332,29.871901 l -0.0035,-3.381478 0.359687,-0.346073 c 0.738762,-0.710801 1.458446,-0.580933 1.900404,0.342931 0.583393,1.219519 0.67154,4.644329 0.167694,6.51547 -0.261942,0.972779 -1.136364,1.371012 -1.831828,0.834259 z"
       id="path3502"
       inkscape:connector-curvature="0"
       transform="translate(0,1004.3622)" />
    <path
       style="fill:#800080;stroke:none"
       d="m 6.2867467,33.653753 -0.4296708,-0.429671 0,-3.377075 0,-3.377075 0.3893844,-0.341884 C 6.7267528,25.706345 7.0915045,25.60665 7.5139208,25.781621 8.1903167,26.061793 8.4917913,27.026448 8.5865546,29.213822 8.6922704,31.65401 8.3887417,33.374363 7.7660785,33.86415 7.304191,34.227471 6.786892,34.153898 6.2867467,33.653753 z"
       id="path3504"
       inkscape:connector-curvature="0"
       transform="translate(0,1004.3622)" />
    <path
       style="fill:#ff6600;stroke:none"
       d="m 32.722805,40.773593 c 2.612774,-2.629734 4.101104,-4.553649 5.05926,-6.539942 0.617628,-1.280364 0.856286,-2.214922 0.852323,-3.337603 -0.0053,-1.501094 -0.494288,-2.537561 -1.747892,-3.704845 -3.919907,-3.649995 -5.272541,-5.645101 -6.042022,-8.911852 -0.19144,-0.812739 -0.23588,-1.362686 -0.241465,-2.988165 -0.006,-1.734369 0.02683,-2.12814 0.25344,-3.043501 0.662156,-2.6747082 2.201025,-5.5870662 3.964474,-7.5028962 l 0.641121,-0.6965202 6.079591,0.032483 6.079592,0.032484 -2.430088,2.4348011 c -1.336548,1.3391407 -2.719782,2.8230945 -3.073852,3.2976753 -2.34637,3.144982 -2.571976,5.971625 -0.695204,8.710321 0.187709,0.273915 0.891007,1.095661 1.562886,1.826101 0.671877,0.73044 1.450659,1.62689 1.730624,1.99211 1.681166,2.193111 2.746539,4.497235 3.151529,6.815937 0.265736,1.521429 0.162982,3.987909 -0.224858,5.397478 -0.733281,2.665043 -1.956895,4.86743 -3.969913,7.145461 l -0.643515,0.728233 -5.991453,0 -5.991454,0 1.676876,-1.68776 z"
       id="path4278"
       inkscape:connector-curvature="0"
       transform="translate(0,1004.3622)" />
  </g>
</svg>
