<?xml version="1.0" encoding="UTF-8" standalone="no"?>
<!-- Created with Inkscape (http://www.inkscape.org/) -->

<svg
   xmlns:dc="http://purl.org/dc/elements/1.1/"
   xmlns:cc="http://creativecommons.org/ns#"
   xmlns:rdf="http://www.w3.org/1999/02/22-rdf-syntax-ns#"
   xmlns:svg="http://www.w3.org/2000/svg"
   xmlns="http://www.w3.org/2000/svg"
   xmlns:sodipodi="http://sodipodi.sourceforge.net/DTD/sodipodi-0.dtd"
   xmlns:inkscape="http://www.inkscape.org/namespaces/inkscape"
   width="48"
   height="48"
   id="svg2"
   version="1.1"
   inkscape:version="0.48.4 r9939"
   sodipodi:docname="phpstorm.svg">
  <defs
     id="defs4" />
  <sodipodi:namedview
     id="base"
     pagecolor="#ffffff"
     bordercolor="#666666"
     borderopacity="1.0"
     inkscape:pageopacity="0.0"
     inkscape:pageshadow="2"
     inkscape:zoom="9.0356456"
     inkscape:cx="25.025601"
     inkscape:cy="21.198845"
     inkscape:document-units="px"
     inkscape:current-layer="layer1"
     showgrid="false"
     inkscape:window-width="1239"
     inkscape:window-height="740"
     inkscape:window-x="1290"
     inkscape:window-y="1178"
     inkscape:window-maximized="0"
     width="0px"
     height="0px"
     fit-margin-top="0"
     fit-margin-left="0"
     fit-margin-right="0"
     fit-margin-bottom="0">
    <inkscape:grid
       type="xygrid"
       id="grid3850"
       empspacing="5"
       visible="true"
       enabled="true"
       snapvisiblegridlinesonly="true" />
  </sodipodi:namedview>
  <metadata
     id="metadata7">
    <rdf:RDF>
      <cc:Work
         rdf:about="">
        <dc:format>image/svg+xml</dc:format>
        <dc:type
           rdf:resource="http://purl.org/dc/dcmitype/StillImage" />
        <dc:title></dc:title>
      </cc:Work>
    </rdf:RDF>
  </metadata>
  <g
     inkscape:label="Capa 1"
     inkscape:groupmode="layer"
     id="layer1"
     transform="translate(0,-1004.3622)">
    <path
       style="fill:#800080"
       d="m 2.9370205,1033.1867 0,-12.1212 5.3980531,0 5.3980524,0 0,9.2258 0,9.2258 1.324978,0 1.324975,0 0,-4.0018 0,-4.0018 0.635329,-0.3227 c 0.792064,-0.4024 1.255796,-0.3978 1.563216,0.015 0.200242,0.2692 0.206849,0.3901 0.234717,4.294 l 0.02868,4.017 1.324513,0 1.324513,0 -0.0282,-4.5884 c -0.02729,-4.4398 -0.03496,-4.6029 -0.236707,-5.039 -0.405446,-0.8767 -1.068593,-1.291 -2.057566,-1.2852 -0.698231,0 -1.565657,0.3532 -2.322284,0.9347 l -0.466197,0.3583 0,-4.416 0,-4.416 5.888786,0 5.888784,0 0,0.6309 c 0,1.9653 0.668952,4.1839 1.792534,5.945 0.631632,0.9899 1.059317,1.4853 2.925066,3.3886 0.953924,0.973 1.893741,2.0183 2.088482,2.3228 1.229742,1.9223 0.402295,3.6318 -4.823931,9.966 l -1.638638,1.9861 -1.643952,0 -1.643953,0 0,-3.1116 0,-3.1115 0.368049,0.3586 c 0.477925,0.4657 1.013992,0.6824 1.704355,0.689 1.524644,0.014 2.53879,-0.8494 2.969462,-2.529 0.389659,-1.5197 0.449431,-5.1639 0.110926,-6.763 -0.356152,-1.6823 -1.264239,-2.5113 -2.748204,-2.5088 -0.788537,0 -1.319506,0.2006 -1.981826,0.7433 l -0.422762,0.3464 0,-0.5099 0,-0.51 -0.466196,0.059 c -0.256406,0.032 -0.918896,0.088 -1.472195,0.1249 l -1.006001,0.067 0,8.3283 0,8.3285 -7.115616,0 -7.115614,0 0,-3.103 0,-3.1031 0.4034243,0.3645 c 0.5272801,0.4763 0.9864841,0.6596 1.6689797,0.666 1.63628,0.015 2.664497,-0.9744 3.08542,-2.9705 0.203468,-0.9649 0.289936,-3.7863 0.157917,-5.1528 -0.154297,-1.5971 -0.407481,-2.3189 -1.030402,-2.9381 -0.576406,-0.5729 -1.012015,-0.7423 -1.908539,-0.7423 -0.6910036,0 -1.2355176,0.2057 -1.9106042,0.7218 l -0.4661958,0.3564 0,-0.5026 0,-0.5028 -0.4661956,0.059 c -0.2564132,0.032 -0.9189023,0.088 -1.4722019,0.1248 l -1.0060008,0.067 0,8.3284 0,8.3283 -1.0796109,0 -1.079611,0 0,-12.121 z"
       id="path3500"
       inkscape:connector-curvature="0" />
    <path
       style="fill:#800080"
       d="m 25.74476,1037.6595 c -0.537347,-0.4146 -0.522046,-0.3123 -0.525381,-3.5163 l -0.0031,-2.9987 0.318976,-0.3069 c 0.655147,-0.6304 1.293374,-0.5153 1.685309,0.3041 0.517362,1.0814 0.595532,4.1186 0.148714,5.7781 -0.232295,0.8626 -1.007746,1.2157 -1.624495,0.7397 z"
       id="path3502"
       inkscape:connector-curvature="0" />
    <path
       style="fill:#800080;stroke:none"
       d="m 8.4216738,1037.497 -0.3810393,-0.381 0,-2.9949 0,-2.9948 0.3453121,-0.3031 c 0.4259318,-0.374 0.7493998,-0.4625 1.1240048,-0.3072 0.5998386,0.2483 0.8671916,1.1039 0.9512286,3.0437 0.09375,2.1639 -0.175424,3.6896 -0.7276116,4.1239 -0.409609,0.3222 -0.868358,0.257 -1.3118946,-0.1866 z"
       id="path3504"
       inkscape:connector-curvature="0" />
    <path
       style="fill:#ff6600;stroke:none"
       d="m 31.865599,1043.811 c 2.317049,-2.3321 3.636925,-4.0382 4.486634,-5.7997 0.547722,-1.1355 0.759368,-1.9642 0.755854,-2.9598 -0.0047,-1.3313 -0.438344,-2.2504 -1.550059,-3.2856 -3.476238,-3.2369 -4.675776,-5.0061 -5.358165,-7.9032 -0.169771,-0.7208 -0.209181,-1.2084 -0.214134,-2.6499 -0.0054,-1.5381 0.02379,-1.8873 0.224755,-2.699 0.587211,-2.372 1.951904,-4.9547 3.515759,-6.6537 l 0.568556,-0.6177 5.391481,0.028 5.391481,0.029 -2.155042,2.1592 c -1.185272,1.1875 -2.411947,2.5035 -2.725942,2.9243 -2.080798,2.789 -2.280869,5.2958 -0.616517,7.7245 0.166463,0.2429 0.790159,0.9717 1.385991,1.6195 0.595833,0.6477 1.286469,1.4427 1.534746,1.7666 1.490886,1.9449 2.435676,3.9882 2.794828,6.0445 0.235658,1.3492 0.144534,3.5365 -0.199409,4.7866 -0.650285,2.3633 -1.735405,4.3164 -3.520583,6.3366 l -0.570679,0.6459 -5.313317,0 -5.313319,0 1.487081,-1.4968 z"
       id="path4278"
       inkscape:connector-curvature="0" />
  </g>
</svg>
