<?xml version="1.0" encoding="UTF-8" standalone="no"?>
<!-- Created using Karbon, part of Calligra: http://www.calligra.org/karbon -->

<svg
   xmlns:dc="http://purl.org/dc/elements/1.1/"
   xmlns:cc="http://creativecommons.org/ns#"
   xmlns:rdf="http://www.w3.org/1999/02/22-rdf-syntax-ns#"
   xmlns:svg="http://www.w3.org/2000/svg"
   xmlns="http://www.w3.org/2000/svg"
   xmlns:sodipodi="http://sodipodi.sourceforge.net/DTD/sodipodi-0.dtd"
   xmlns:inkscape="http://www.inkscape.org/namespaces/inkscape"
   width="38.4pt"
   height="38.4pt"
   id="svg2"
   version="1.1"
   inkscape:version="0.48.4 r9939"
   sodipodi:docname="preferences-system-windows-move.svg">
  <metadata
     id="metadata26">
    <rdf:RDF>
      <cc:Work
         rdf:about="">
        <dc:format>image/svg+xml</dc:format>
        <dc:type
           rdf:resource="http://purl.org/dc/dcmitype/StillImage" />
      </cc:Work>
    </rdf:RDF>
  </metadata>
  <sodipodi:namedview
     pagecolor="#ffffff"
     bordercolor="#666666"
     borderopacity="1"
     objecttolerance="10"
     gridtolerance="10"
     guidetolerance="10"
     inkscape:pageopacity="0"
     inkscape:pageshadow="2"
     inkscape:window-width="640"
     inkscape:window-height="480"
     id="namedview24"
     showgrid="false"
     inkscape:zoom="4.9166667"
     inkscape:cx="24"
     inkscape:cy="24"
     inkscape:window-x="1060"
     inkscape:window-y="221"
     inkscape:window-maximized="0"
     inkscape:current-layer="svg2" />
  <defs
     id="defs4" />
  <g
     id="layer1">
    <rect
       id="rect907"
       transform="translate(1.98426,7.01576)"
       width="43.999992"
       height="33.999985"
       x="0"
       y="0"
       style="fill:#2980b9" />
    <rect
       id="rect914"
       transform="translate(5.98426, 15.0158)"
       fill="none"
       width="3.86012304000pt"
       height="2.84430144000pt" />
    <path
       id="path3290"
       transform="translate(5.98426, 20.3272)"
       fill="none"
       d="M0 0" />
    <path
       id="path3292"
       transform="translate(5.98426, 13.0158)"
       fill="none"
       d="M0 0" />
    <path
       id="path3294"
       transform="translate(9.39683, 20.0158)"
       fill="none"
       d="M0 0" />
    <path
       id="path3296"
       transform="translate(9.39683, 26.0158)"
       fill="none"
       d="M0 0" />
    <rect
       id="rect825"
       transform="translate(35.1956, 7.81856)"
       fill="#f1c40f"
       width="1.91545200000pt"
       height="1.91545200000pt" />
    <rect
       id="rect827"
       transform="translate(39.5899, 7.81856)"
       fill="#e74c3c"
       width="1.91545200000pt"
       height="1.91545200000pt" />
    <path
       id="path3303"
       transform="translate(45.9842, 9.01576)"
       fill="none"
       d="M0 0" />
    <path
       id="path3305"
       transform="translate(39.5899, 9.01576)"
       fill="none"
       d="M0 0" />
    <path
       id="path3307"
       transform="translate(35.1956, 9.01576)"
       fill="none"
       d="M0 0" />
    <rect
       id="rect3309"
       transform="translate(30.8013,7.81856)"
       width="2.394315"
       height="2.394315"
       x="0"
       y="0"
       style="fill:#2ecc71" />
    <path
       id="path3311"
       transform="translate(27.4843, 44.5158)"
       fill="none"
       d="M0 0" />
    <path
       id="path3315"
       transform="translate(1.98426, 24.0158)"
       fill="none"
       d="M0 0" />
    <path
       id="path3317"
       transform="translate(47.9843, 24.0158)"
       fill="none"
       d="M0 0" />
    <path
       id="shape0"
       transform="translate(11.9004,12.2716)"
       d="M 12.4016,0 C 5.55281,0 0,5.55281 0,12.4016 c 0,6.8487 5.55281,12.4016 12.4016,12.4016 6.8487,0 12.4016,-5.5529 12.4016,-12.4016 C 24.8032,5.55281 19.2503,0 12.4016,0 z m 4.6506,15.502 0,-1.5502 -3.1004,0 0,3.1004 1.5502,0 -3.1004,3.1004 -3.1004,-3.1004 1.5502,0 0,-3.1004 -3.1004,0 0,1.5502 -3.1004,-3.1004 3.1004,-3.1004 0,1.5502 3.1004,0 0,-3.1004 -1.5502,0 3.1004,-3.1004 3.1004,3.1004 -1.5502,0 0,3.1004 3.1004,0 0,-1.5502 3.1004,3.1004 z"
       inkscape:connector-curvature="0"
       style="fill:#2c3e50" />
  </g>
  <g
     id="g3269" />
</svg>
