<?xml version="1.0" encoding="UTF-8" standalone="no"?>
<!-- Created with Inkscape (http://www.inkscape.org/) -->

<svg
   xmlns:dc="http://purl.org/dc/elements/1.1/"
   xmlns:cc="http://creativecommons.org/ns#"
   xmlns:rdf="http://www.w3.org/1999/02/22-rdf-syntax-ns#"
   xmlns:svg="http://www.w3.org/2000/svg"
   xmlns="http://www.w3.org/2000/svg"
   xmlns:sodipodi="http://sodipodi.sourceforge.net/DTD/sodipodi-0.dtd"
   xmlns:inkscape="http://www.inkscape.org/namespaces/inkscape"
   width="48"
   height="48"
   id="svg4230"
   version="1.1"
   inkscape:version="0.48.4 r9939"
   sodipodi:docname="teamviewer.svg">
  <defs
     id="defs4232">
    <inkscape:perspective
       sodipodi:type="inkscape:persp3d"
       inkscape:vp_x="-2.125085 : 17.9595 : 1"
       inkscape:vp_y="0 : 1025.3733 : 0"
       inkscape:vp_z="51.208285 : 8.1863348 : 1"
       inkscape:persp3d-origin="25.642543 : -0.016651843 : 1"
       id="perspective2989" />
  </defs>
  <sodipodi:namedview
     id="base"
     pagecolor="#ffffff"
     bordercolor="#666666"
     borderopacity="1.0"
     inkscape:pageopacity="0.0"
     inkscape:pageshadow="2"
     inkscape:zoom="8.7081303"
     inkscape:cx="33.285982"
     inkscape:cy="24.380379"
     inkscape:document-units="px"
     inkscape:current-layer="layer1"
     showgrid="false"
     inkscape:showpageshadow="false"
     borderlayer="true"
     inkscape:window-width="1387"
     inkscape:window-height="742"
     inkscape:window-x="1470"
     inkscape:window-y="1203"
     inkscape:window-maximized="0" />
  <metadata
     id="metadata4235">
    <rdf:RDF>
      <cc:Work
         rdf:about="">
        <dc:format>image/svg+xml</dc:format>
        <dc:type
           rdf:resource="http://purl.org/dc/dcmitype/StillImage" />
        <dc:title />
      </cc:Work>
    </rdf:RDF>
  </metadata>
  <g
     inkscape:label="Capa 1"
     inkscape:groupmode="layer"
     id="layer1"
     transform="translate(0,-1004.3622)">
    <g
       transform="matrix(0.36107049,0,0,-0.36107049,24.938366,1037.2761)"
       id="g312"
       style="fill:#000000;fill-opacity:0.49803922" />
    <g
       transform="matrix(0.36107049,0,0,-0.36107049,36.293746,1025.92)"
       id="g316"
       style="fill:#000000;fill-opacity:0.49803922" />
    <rect
       style="fill:#000080;fill-rule:evenodd;stroke:none"
       id="rect3023"
       width="39.158806"
       height="33.0886"
       x="4.8230786"
       y="1012.2369"
       ry="0" />
    <rect
       style="fill:#ffffff;fill-rule:evenodd;stroke:none"
       id="rect3023-6"
       width="25.471079"
       height="21.522676"
       x="11.785967"
       y="1017.831"
       ry="0" />
    <path
       style="fill:#008080;stroke:none"
       d="m 17.929729,1031.1763 c -1.71671,-1.0423 -3.31359,-2.0258 -3.548624,-2.1855 l -0.427333,-0.2904 0.334982,-0.2339 c 1.111428,-0.7757 6.714679,-4.1971 6.873778,-4.1971 0.03687,0 0.06702,0.482 0.06702,1.0712 l 0,1.0712 3.379963,0 3.379962,0 0.04197,-1.0018 c 0.02308,-0.551 0.07491,-1.0347 0.115164,-1.075 0.118889,-0.1187 7.127741,4.1387 7.127741,4.3296 0,0.1641 -7.005719,4.4689 -7.107346,4.3673 -0.03055,-0.031 -0.08528,-0.5953 -0.121629,-1.2549 l -0.06609,-1.1994 -3.374868,0 -3.374869,0 0,1.2498 c 0,0.6874 -0.04017,1.2484 -0.08927,1.2469 -0.0491,0 -1.493848,-0.8556 -3.210557,-1.898 z"
       id="path3813"
       inkscape:connector-curvature="0" />
  </g>
</svg>
