<?xml version="1.0" encoding="UTF-8" standalone="no"?>
<!-- Created with Inkscape (http://www.inkscape.org/) -->

<svg
   xmlns:dc="http://purl.org/dc/elements/1.1/"
   xmlns:cc="http://creativecommons.org/ns#"
   xmlns:rdf="http://www.w3.org/1999/02/22-rdf-syntax-ns#"
   xmlns:svg="http://www.w3.org/2000/svg"
   xmlns="http://www.w3.org/2000/svg"
   xmlns:sodipodi="http://sodipodi.sourceforge.net/DTD/sodipodi-0.dtd"
   xmlns:inkscape="http://www.inkscape.org/namespaces/inkscape"
   width="48"
   height="48"
   id="svg4230"
   version="1.1"
   inkscape:version="0.48.4 r9939"
   sodipodi:docname="teamviewer.svg">
  <defs
     id="defs4232" />
  <sodipodi:namedview
     id="base"
     pagecolor="#ffffff"
     bordercolor="#666666"
     borderopacity="1.0"
     inkscape:pageopacity="0.0"
     inkscape:pageshadow="2"
     inkscape:zoom="8.7081303"
     inkscape:cx="36.56189"
     inkscape:cy="31.10914"
     inkscape:document-units="px"
     inkscape:current-layer="layer1"
     showgrid="false"
     inkscape:showpageshadow="false"
     borderlayer="true"
     inkscape:window-width="1920"
     inkscape:window-height="1021"
     inkscape:window-x="1062"
     inkscape:window-y="1066"
     inkscape:window-maximized="1" />
  <metadata
     id="metadata4235">
    <rdf:RDF>
      <cc:Work
         rdf:about="">
        <dc:format>image/svg+xml</dc:format>
        <dc:type
           rdf:resource="http://purl.org/dc/dcmitype/StillImage" />
        <dc:title></dc:title>
      </cc:Work>
    </rdf:RDF>
  </metadata>
  <g
     inkscape:label="Capa 1"
     inkscape:groupmode="layer"
     id="layer1"
     transform="translate(0,-1004.3622)">
    <rect
       style="fill:#0000ff;fill-opacity:0.01960784;stroke:none"
       id="rect5263"
       width="44.399963"
       height="44.399963"
       x="1.8000183"
       y="1006.277"
       ry="6.2786646" />
    <g
       transform="matrix(0.36107049,0,0,-0.36107049,24.938366,1037.2761)"
       id="g312"
       style="fill:#000000;fill-opacity:0.49803922" />
    <g
       transform="matrix(0.36107049,0,0,-0.36107049,36.293746,1025.92)"
       id="g316"
       style="fill:#000000;fill-opacity:0.49803922" />
    <rect
       style="fill:#0000ff;stroke:none"
       id="rect4661"
       width="44.785732"
       height="42.833534"
       x="1.3780226"
       y="1006.7726"
       ry="6.2786646" />
    <path
       style="fill:#f9f9f9;stroke:none"
       d="m 22.469606,1043.2199 c -5.269352,-0.3268 -10.236145,-3.7784 -12.440708,-8.6457 -1.0401906,-2.2965 -1.4323736,-4.2677 -1.3424506,-6.7475 0.05352,-1.4758 0.182747,-2.3118 0.562751,-3.6408 1.4036066,-4.9089 5.3543046,-8.8617 10.2165146,-10.2222 1.525612,-0.4269 2.394063,-0.5396 4.169582,-0.5418 2.298099,0 3.759053,0.2885 5.833984,1.1631 1.789395,0.7543 3.257739,1.7632 4.746886,3.2616 3.025632,3.0446 4.574155,7.1891 4.293599,11.4912 -0.387788,5.9466 -4.404494,11.1916 -10.046742,13.119 -1.252976,0.428 -2.395396,0.6719 -3.416839,0.7297 -0.455424,0.025 -0.989447,0.058 -1.186718,0.072 -0.197271,0.014 -0.822707,0 -1.389859,-0.039 l 0,0 z m -2.600384,-11.2013 0,-1.4346 3.721238,0 3.721239,0 0,1.4346 c 0,0.7892 0.02319,1.4347 0.05152,1.4347 0.129367,0 8.287643,-5.0162 8.287643,-5.0958 0,-0.034 -0.07061,-0.1073 -0.156919,-0.1629 -2.23258,-1.4381 -7.735596,-4.8113 -8.039907,-4.9281 -0.125855,-0.049 -0.142334,0.092 -0.142334,1.2104 l 0,1.265 -3.721239,0 -3.721238,0 0,-1.265 c 0,-0.9752 -0.02568,-1.2551 -0.112086,-1.2219 -0.449481,0.1727 -7.86702,4.7484 -8.081264,4.985 -0.155863,0.1723 -0.142211,0.187 0.587072,0.6323 0.410655,0.2506 2.259799,1.382 4.10921,2.5142 1.84941,1.1321 3.392828,2.0603 3.429816,2.0626 0.03699,0 0.06726,-0.6413 0.06726,-1.4305 z"
       id="path4672"
       inkscape:connector-curvature="0" />
  </g>
</svg>
