<?xml version="1.0" encoding="UTF-8" standalone="no"?>
<!-- Created with Inkscape (http://www.inkscape.org/) -->

<svg
   xmlns:dc="http://purl.org/dc/elements/1.1/"
   xmlns:cc="http://creativecommons.org/ns#"
   xmlns:rdf="http://www.w3.org/1999/02/22-rdf-syntax-ns#"
   xmlns:svg="http://www.w3.org/2000/svg"
   xmlns="http://www.w3.org/2000/svg"
   xmlns:sodipodi="http://sodipodi.sourceforge.net/DTD/sodipodi-0.dtd"
   xmlns:inkscape="http://www.inkscape.org/namespaces/inkscape"
   width="48"
   height="48"
   id="svg4230"
   version="1.1"
   inkscape:version="0.48.4 r9939"
   sodipodi:docname="teamviewer.svg">
  <defs
     id="defs4232" />
  <sodipodi:namedview
     id="base"
     pagecolor="#ffffff"
     bordercolor="#666666"
     borderopacity="1.0"
     inkscape:pageopacity="0.0"
     inkscape:pageshadow="2"
     inkscape:zoom="8.7081303"
     inkscape:cx="36.56189"
     inkscape:cy="31.10914"
     inkscape:document-units="px"
     inkscape:current-layer="layer1"
     showgrid="false"
     inkscape:showpageshadow="false"
     borderlayer="true"
     inkscape:window-width="1920"
     inkscape:window-height="1021"
     inkscape:window-x="1062"
     inkscape:window-y="1066"
     inkscape:window-maximized="1" />
  <metadata
     id="metadata4235">
    <rdf:RDF>
      <cc:Work
         rdf:about="">
        <dc:format>image/svg+xml</dc:format>
        <dc:type
           rdf:resource="http://purl.org/dc/dcmitype/StillImage" />
        <dc:title></dc:title>
      </cc:Work>
    </rdf:RDF>
  </metadata>
  <g
     inkscape:label="Capa 1"
     inkscape:groupmode="layer"
     id="layer1"
     transform="translate(0,-1004.3622)">
    <rect
       style="fill:#0000ff;fill-opacity:0.01960784;stroke:none"
       id="rect5263"
       width="44.399963"
       height="44.399963"
       x="1.8000183"
       y="1006.277"
       ry="6.2786646" />
    <g
       transform="matrix(0.36107049,0,0,-0.36107049,24.938366,1037.2761)"
       id="g312"
       style="fill:#000000;fill-opacity:0.49803922" />
    <g
       transform="matrix(0.36107049,0,0,-0.36107049,36.293746,1025.92)"
       id="g316"
       style="fill:#000000;fill-opacity:0.49803922" />
    <rect
       style="fill:#0000ff;stroke:none"
       id="rect4661"
       width="44.785732"
       height="42.833534"
       x="1.3780226"
       y="1006.7726"
       ry="6.2786646" />
    <path
       style="fill:#0000ff;stroke:none"
       d="m 14.393119,1032.0516 c -2.431635,-1.4848 -4.7430536,-2.8907 -5.1364856,-3.1243 -0.393432,-0.2336 -0.700041,-0.4764 -0.681353,-0.5395 0.04215,-0.1425 2.0632226,-1.4154 6.6791036,-4.2067 l 3.559891,-2.1527 0.03195,1.5433 0.03195,1.5433 4.874015,0 4.874016,0 0.03195,-1.5524 0.03195,-1.5524 2.067033,1.2445 c 4.632487,2.7893 8.211253,5.0445 8.209992,5.1736 -3.44e-4,0.041 -0.142508,0.1566 -0.315796,0.2572 -0.17329,0.1006 -2.485457,1.5112 -5.138151,3.1347 l -4.823078,2.9517 -0.03155,-1.8428 -0.03155,-1.8427 -4.874808,0 -4.874807,0 -0.03155,1.8324 -0.03155,1.8325 -4.421156,-2.6997 z"
       id="path4643"
       inkscape:connector-curvature="0" />
    <path
       style="fill:#f9f9f9;stroke:none"
       d="m 22.322323,1047.4491 c -6.748276,-0.4185 -13.1090756,-4.8389 -15.9323836,-11.0723 -1.332137,-2.9411 -1.834392,-5.4655 -1.719231,-8.6412 0.06854,-1.89 0.234038,-2.9607 0.720696,-4.6627 1.797552,-6.2867 6.8570736,-11.349 13.0839386,-13.0912 1.953798,-0.5467 3.065993,-0.6912 5.339838,-0.6939 2.943097,0 4.81409,0.3695 7.471382,1.4896 2.291616,0.9659 4.172073,2.258 6.079173,4.177 3.874821,3.8991 5.857962,9.2067 5.498663,14.7164 -0.496627,7.6156 -5.640682,14.3327 -12.866514,16.801 -1.604644,0.5481 -3.067701,0.8605 -4.375828,0.9345 -0.583246,0.033 -1.267151,0.074 -1.519788,0.092 -0.252638,0.018 -1.053613,0 -1.779946,-0.05 l 0,0 z m -3.330221,-14.3451 0,-1.8373 4.765661,0 4.765662,0 0,1.8373 c 0,1.0106 0.02969,1.8374 0.06598,1.8374 0.165676,0 10.613698,-6.4242 10.613698,-6.5261 0,-0.043 -0.09043,-0.1374 -0.200961,-0.2086 -2.859188,-1.8418 -9.90671,-6.1616 -10.296431,-6.3112 -0.161178,-0.062 -0.182282,0.1177 -0.182282,1.5501 l 0,1.62 -4.765662,0 -4.765661,0 0,-1.62 c 0,-1.2489 -0.03289,-1.6074 -0.143544,-1.5649 -0.575635,0.2212 -10.0750196,6.0811 -10.3493956,6.3842 -0.199608,0.2206 -0.182124,0.2394 0.751843,0.8096 0.525912,0.321 2.8940466,1.77 5.2625236,3.2199 2.368476,1.4499 4.345077,2.6386 4.392447,2.6416 0.04737,0 0.08613,-0.8214 0.08613,-1.832 z"
       id="path4672"
       inkscape:connector-curvature="0" />
  </g>
</svg>
