<?xml version="1.0" encoding="UTF-8" standalone="no"?>
<!-- Created with Inkscape (http://www.inkscape.org/) -->

<svg
   xmlns:dc="http://purl.org/dc/elements/1.1/"
   xmlns:cc="http://creativecommons.org/ns#"
   xmlns:rdf="http://www.w3.org/1999/02/22-rdf-syntax-ns#"
   xmlns:svg="http://www.w3.org/2000/svg"
   xmlns="http://www.w3.org/2000/svg"
   xmlns:sodipodi="http://sodipodi.sourceforge.net/DTD/sodipodi-0.dtd"
   xmlns:inkscape="http://www.inkscape.org/namespaces/inkscape"
   width="48"
   height="48"
   id="svg4230"
   version="1.1"
   inkscape:version="0.48.4 r9939"
   sodipodi:docname="teamviewer.svg">
  <defs
     id="defs4232" />
  <sodipodi:namedview
     id="base"
     pagecolor="#ffffff"
     bordercolor="#666666"
     borderopacity="1.0"
     inkscape:pageopacity="0.0"
     inkscape:pageshadow="2"
     inkscape:zoom="8.7081303"
     inkscape:cx="36.56189"
     inkscape:cy="31.10914"
     inkscape:document-units="px"
     inkscape:current-layer="layer1"
     showgrid="false"
     inkscape:showpageshadow="false"
     borderlayer="true"
     inkscape:window-width="1920"
     inkscape:window-height="1021"
     inkscape:window-x="1062"
     inkscape:window-y="1066"
     inkscape:window-maximized="1" />
  <metadata
     id="metadata4235">
    <rdf:RDF>
      <cc:Work
         rdf:about="">
        <dc:format>image/svg+xml</dc:format>
        <dc:type
           rdf:resource="http://purl.org/dc/dcmitype/StillImage" />
        <dc:title></dc:title>
      </cc:Work>
    </rdf:RDF>
  </metadata>
  <g
     inkscape:label="Capa 1"
     inkscape:groupmode="layer"
     id="layer1"
     transform="translate(0,-1004.3622)">
    <rect
       style="fill:#0000ff;fill-opacity:0.01960784;stroke:none"
       id="rect5263"
       width="38.484753"
       height="38.458805"
       x="4.6146784"
       y="1009.4923"
       ry="5.4385166" />
    <g
       transform="matrix(0.36107049,0,0,-0.36107049,24.938366,1037.2761)"
       id="g312"
       style="fill:#000000;fill-opacity:0.49803922" />
    <g
       transform="matrix(0.36107049,0,0,-0.36107049,36.293746,1025.92)"
       id="g316"
       style="fill:#000000;fill-opacity:0.49803922" />
    <rect
       style="fill:#0000ff;stroke:none"
       id="rect4661"
       width="38.819126"
       height="37.101978"
       x="4.2489033"
       y="1009.9216"
       ry="5.4385166" />
    <path
       style="fill:#f9f9f9;stroke:none"
       d="m 22.530548,1041.492 c -4.567339,-0.2831 -8.872428,-3.2728 -10.783288,-7.4889 -0.90161,-1.9891 -1.241544,-3.6966 -1.163601,-5.8445 0.04639,-1.2783 0.1584,-2.0025 0.487778,-3.1536 1.21661,-4.2521 4.640975,-7.676 8.855414,-8.8544 1.322362,-0.3698 2.075113,-0.4674 3.614086,-0.4694 1.991934,0 3.258252,0.2499 5.056749,1.0075 1.551001,0.6534 2.823725,1.5273 4.114479,2.8252 2.622541,2.6372 3.964761,6.2271 3.721582,9.9536 -0.336124,5.1508 -3.817703,9.694 -8.708259,11.3635 -1.086048,0.3708 -2.076268,0.582 -2.961628,0.632 -0.394751,0.022 -0.857628,0.05 -1.028618,0.062 -0.170989,0.012 -0.7131,0 -1.204694,-0.034 l 0,0 z m -2.253946,-9.7024 0,-1.2427 3.225474,0 3.225475,0 0,1.2427 c 0,0.6836 0.0201,1.2427 0.04465,1.2427 0.112133,0 7.183518,-4.345 7.183518,-4.414 0,-0.03 -0.06121,-0.093 -0.136015,-0.1411 -1.935142,-1.2456 -6.705016,-4.1675 -6.968785,-4.2687 -0.109088,-0.042 -0.123371,0.079 -0.123371,1.0485 l 0,1.0957 -3.225475,0 -3.225475,0 0,-1.0957 c 0,-0.8447 -0.02226,-1.0872 -0.09715,-1.0584 -0.389599,0.1496 -6.818932,4.113 -7.004632,4.3179 -0.135098,0.1493 -0.123266,0.162 0.508859,0.5478 0.355945,0.217 1.958736,1.197 3.561758,2.1777 1.603021,0.9806 2.940816,1.7846 2.972877,1.7867 0.03206,0 0.0583,-0.5555 0.0583,-1.2391 z"
       id="path4672"
       inkscape:connector-curvature="0" />
  </g>
</svg>
