<?xml version="1.0" encoding="UTF-8" standalone="no"?>
<!-- Created with Inkscape (http://www.inkscape.org/) -->

<svg
   xmlns:dc="http://purl.org/dc/elements/1.1/"
   xmlns:cc="http://creativecommons.org/ns#"
   xmlns:rdf="http://www.w3.org/1999/02/22-rdf-syntax-ns#"
   xmlns:svg="http://www.w3.org/2000/svg"
   xmlns="http://www.w3.org/2000/svg"
   xmlns:sodipodi="http://sodipodi.sourceforge.net/DTD/sodipodi-0.dtd"
   xmlns:inkscape="http://www.inkscape.org/namespaces/inkscape"
   width="48"
   height="48"
   id="svg3613"
   version="1.1"
   inkscape:version="0.48.4 r9939"
   sodipodi:docname="applications-system.svg">
  <defs
     id="defs3615" />
  <sodipodi:namedview
     id="base"
     pagecolor="#ffffff"
     bordercolor="#666666"
     borderopacity="1.0"
     inkscape:pageopacity="0.0"
     inkscape:pageshadow="2"
     inkscape:zoom="8.0343727"
     inkscape:cx="30.900503"
     inkscape:cy="29.680577"
     inkscape:document-units="px"
     inkscape:current-layer="layer1"
     showgrid="false"
     inkscape:window-width="681"
     inkscape:window-height="666"
     inkscape:window-x="1072"
     inkscape:window-y="124"
     inkscape:window-maximized="0">
    <sodipodi:guide
       position="9,39.000017"
       orientation="30,0"
       id="guide3269" />
    <sodipodi:guide
       position="9,9.0000174"
       orientation="0,30"
       id="guide3271" />
    <sodipodi:guide
       position="39,9.0000174"
       orientation="-30,0"
       id="guide3273" />
    <sodipodi:guide
       position="39,39.000017"
       orientation="0,-30"
       id="guide3275" />
  </sodipodi:namedview>
  <metadata
     id="metadata3618">
    <rdf:RDF>
      <cc:Work
         rdf:about="">
        <dc:format>image/svg+xml</dc:format>
        <dc:type
           rdf:resource="http://purl.org/dc/dcmitype/StillImage" />
        <dc:title></dc:title>
      </cc:Work>
    </rdf:RDF>
  </metadata>
  <g
     inkscape:label="Capa 1"
     inkscape:groupmode="layer"
     id="layer1"
     transform="translate(0,-1004.3622)">
    <rect
       style="fill:none;fill-opacity:1;fill-rule:evenodd;stroke:none"
       id="rect3265"
       width="30"
       height="30"
       x="9"
       y="1013.3622" />
    <path
       style="fill:#34495e;fill-opacity:1;fill-rule:evenodd;stroke:none"
       d="m 29.025426,1007.3875 c -1.05105,0 -2.102712,0.095 -3.136815,0.3029 l -1.657858,4.0088 0,0.056 c -0.601287,0.2335 -1.190566,0.4962 -1.749866,0.8163 -0.556055,0.3197 -1.076792,0.6946 -1.577773,1.0942 l -0.05283,-0.028 -4.319288,-0.5757 c -1.376348,1.5842 -2.457017,3.4191 -3.150435,5.3963 l 2.671646,3.4554 0.04418,0.02 c -0.184936,1.2669 -0.178939,2.5596 0.0092,3.8303 l -0.05443,0.028 -2.672732,3.4636 c 0.340024,0.9884 0.769803,1.9458 1.294934,2.85 0.525131,0.9077 1.143527,1.7589 1.833361,2.5465 l 4.343141,-0.5786 0.05441,-0.028 c 1.008955,0.7968 2.130216,1.4476 3.325936,1.9234 l 0,0.048 1.668076,4.029 c 2.065786,0.3908 4.200629,0.3766 6.266807,-0.018 l 1.661267,-4.0123 0,-0.052 c 0.597477,-0.2323 1.183551,-0.4945 1.739643,-0.8117 0.559303,-0.3224 1.084278,-0.7006 1.587996,-1.1017 l 0.05283,0.028 4.314174,0.5757 c 1.377196,-1.589 2.456485,-3.4222 3.150449,-5.4009 l -2.668258,-3.4491 -0.04418,-0.026 c 0.185232,-1.2661 0.179782,-2.5622 -0.0077,-3.8284 l 0.05442,-0.028 2.669954,-3.4566 c -0.339782,-0.9887 -0.766341,-1.9477 -1.291527,-2.8522 -0.525186,-0.9073 -1.146564,-1.7562 -1.836761,-2.5441 l -4.339739,0.577 -0.0545,0.029 c -1.008546,-0.7957 -2.130736,-1.4483 -3.325941,-1.9221 l -0.0017,-0.048 -1.664675,-4.024 c -1.03398,-0.1956 -2.084054,-0.2908 -3.135101,-0.2878 z m -0.0017,6.9173 c 2.512442,0 5.01067,1.0297 6.788187,2.8002 1.777513,1.7697 2.813071,4.2535 2.813071,6.7555 0,2.5021 -1.035558,4.9879 -2.813071,6.7577 -1.777517,1.7701 -4.275745,2.7985 -6.788187,2.7984 -2.512439,0 -5.007822,-1.0297 -6.783072,-2.7999 -1.775248,-1.7699 -2.807967,-4.2545 -2.807967,-6.7562 0,-2.5018 1.032719,-4.9858 2.807967,-6.7555 1.77525,-1.7705 4.270633,-2.8001 6.783072,-2.8002 z"
       id="path4112"
       inkscape:connector-curvature="0" />
    <path
       inkscape:connector-curvature="0"
       id="path4151"
       d="m 16.305437,1023.2664 c -0.791686,0 -1.583819,0.064 -2.362722,0.2284 l -1.248746,3.0216 0,0.036 c -0.452897,0.1887 -0.896752,0.3737 -1.318029,0.6142 -0.41884,0.2403 -0.811071,0.5234 -1.188421,0.825 l -0.03977,-0.017 -3.2533875,-0.4346 c -1.0366975,1.1978 -1.8506746,2.5775 -2.3729814,4.0663 l 2.0123526,2.6043 0.03325,0.017 c -0.1392881,0.9529 -0.1347359,1.9307 0.00691,2.8838 l -0.040991,0.017 -2.0136555,2.6073 c 0.2561213,0.7444 0.5798364,1.4651 0.9753744,2.1523 0.3955387,0.6793 0.8613232,1.3205 1.3809294,1.9141 l 3.271347,-0.437 0.04095,-0.017 c 0.759979,0.5994 1.604533,1.0902 2.505181,1.4506 l 0,0.03 1.25643,3.0351 c 1.555992,0.2948 3.164018,0.2853 4.720303,-0.017 l 1.251304,-3.0243 0,-0.033 c 0.450038,-0.1859 0.891472,-0.3723 1.310339,-0.6125 0.421276,-0.2405 0.816702,-0.5268 1.196125,-0.8282 l 0.03978,0.017 3.249542,0.43 c 1.037329,-1.1937 1.850275,-2.5794 2.372976,-4.0696 l -2.009783,-2.5954 -0.03314,-0.017 c 0.139442,-0.9568 0.13517,-1.93 -0.0052,-2.8824 l 0.04095,-0.018 2.011074,-2.6052 c -0.255921,-0.7445 -0.57722,-1.4663 -0.972793,-2.1499 -0.395583,-0.6831 -0.863637,-1.323 -1.383491,-1.9165 l -3.268797,0.4357 -0.04099,0.02 c -0.759669,-0.5987 -1.604927,-1.0907 -2.505183,-1.4503 l -0.0014,-0.031 -1.253876,-3.032 c -0.778818,-0.1684 -1.569744,-0.2204 -2.361427,-0.2188 z m -0.0014,5.2116 c 1.892419,0 3.774154,0.7756 5.113009,2.1105 1.338864,1.3337 2.118875,3.2055 2.118875,5.0895 0,1.8852 -0.780011,3.7596 -2.118875,5.0907 -1.338855,1.3362 -3.22059,2.1095 -5.113009,2.1095 -1.892435,0 -3.772017,-0.7744 -5.109177,-2.1102 -1.3371532,-1.3321 -2.115023,-3.2051 -2.115023,-5.09 0,-1.8838 0.7778698,-3.7558 2.115023,-5.0895 1.33716,-1.3349 3.216742,-2.1104 5.109177,-2.1105 z"
       style="fill:#27ae60;fill-opacity:1;fill-rule:evenodd;stroke:none" />
  </g>
</svg>
